<?xml version="1.0" encoding="UTF-8" standalone="no"?>
<svg width="100px" height="78px" viewBox="0 0 100 78" version="1.1" xmlns="http://www.w3.org/2000/svg" xmlns:xlink="http://www.w3.org/1999/xlink">
    <!-- Generator: Sketch 41.2 (35397) - http://www.bohemiancoding.com/sketch -->
    <title>statusIcon</title>
    <desc>Created with Sketch.</desc>
    <defs></defs>
    <g id="Page-1" stroke="none" stroke-width="1" fill="none" fill-rule="evenodd">
        <g id="onboard7" transform="translate(-672.000000, -562.000000)" fill="#FBFBFB">
            <g id="confirmation">
                <path d="M762.468749,563.916194 C743.970767,584.497675 725.459856,604.966396 706.948945,625.547876 L681.266742,601.971124 C680.141331,600.841941 678.655121,600.265335 677.140155,600.39347 C675.625171,600.513588 674.225652,601.314439 673.266032,602.611735 C672.29932,603.909092 671.859255,605.590811 672.039617,607.264556 C672.21998,608.930305 673.006329,610.443932 674.225541,611.453017 L703.775034,638.617537 C705.989769,640.619633 709.214542,640.427432 711.220029,638.169066 C730.907379,616.265237 750.609504,594.490568 770.319016,572.564188 C772.036007,570.714254 772.490534,567.847198 771.437224,565.45262 C770.383951,563.066037 768.075415,561.69674 765.701852,562.057157 C764.459887,562.258462 763.327162,562.90713 762.468749,563.916194 Z" id="statusIcon"></path>
            </g>
        </g>
    </g>
</svg>