<svg xmlns="http://www.w3.org/2000/svg" width="100" height="100" viewBox="0 0 100 100">
    <path fill="#FFF" fill-rule="evenodd" d="M50 0a50 50 0 1 0 .001 100A50 50 0 0 0 50 0zm-.383 28.977h.86c4.617 0 8.234 3.668 8.234 8.348v11.559c0 .285-.234.52-.52.52h-5.43v1.241l1.446 1.442h3.238c1.02 0 1.98.242 2.84.664a7.887 7.887 0 0 1 3.145-.664h1.41c.008 0 .012.004.02.004l1.601-1.594a.45.45 0 0 1 .172-.117v-1.684a6.481 6.481 0 0 1-3.66-5.828v-.223h-.223c-.7 0-1.266-.57-1.266-1.265V39.14c0-.699.567-1.265 1.266-1.265h.223v-.57a1.264 1.264 0 0 1-.746-1.149v-2.98a2.762 2.762 0 0 1 2.757-2.758c.29 0 .524.234.524.52 0 .535.433.972.969.972h8.203c1.109 0 2.011.902 2.011 2.012v2.238c0 .512-.308.945-.746 1.148v.567h.211c.7 0 1.266.57 1.266 1.265v2.239c0 .695-.567 1.265-1.266 1.265h-.21v.223a6.492 6.492 0 0 1-3.798 5.898v1.532c.106.015.211.058.29.136l1.652 1.657h1.265c4.399 0 7.977 3.574 7.977 7.976v10.434a.52.52 0 0 1-.52.524H17.183a.52.52 0 0 1-.52-.524V60.063c0-4.398 3.579-7.976 7.977-7.976h1.415c.007 0 .011.003.02.003l1.597-1.597a.537.537 0 0 1 .187-.117v-1.368a5.742 5.742 0 0 1-3.726-5.37v-.97h-.227c-.7 0-1.265-.57-1.265-1.269v-2.234c0-.7.566-1.266 1.265-1.266h.223V34.77c-.008-.008-.016-.02-.024-.027a2.327 2.327 0 0 1-.257-.262c-.016-.02-.032-.035-.047-.059a1.989 1.989 0 0 1-.188-.304.893.893 0 0 1-.035-.063c-.05-.11-.09-.222-.121-.343l-.024-.067a1.994 1.994 0 0 1-.05-.433v-1.493c0-.851.324-1.68.906-2.332a.53.53 0 0 1 .531-.152.535.535 0 0 1 .371.414c.082.469.48.805.953.805h7.457c.926 0 1.711.636 1.942 1.492h.293c.699 0 1.265.57 1.265 1.27v4.683h.211c.7 0 1.266.566 1.266 1.266v2.234c0 .7-.567 1.27-1.266 1.27h-.21v.968c0 2.461-1.56 4.559-3.735 5.375v1.281c.125.008.25.051.34.141l1.656 1.656h1.207a7.89 7.89 0 0 1 3.133.657 6.419 6.419 0 0 1 2.828-.657h3.285l1.418-1.418v-1.27h-5.45a.52.52 0 0 1-.519-.519v-9.96a.516.516 0 0 1-.418.03.522.522 0 0 1-.343-.488c0-1.457.46-2.824 1.261-3.96.004-.016 0-.032.008-.051a8.377 8.377 0 0 1 7.844-5.477zm0 1.04c-2.031 0-3.918.866-5.273 2.276a6.901 6.901 0 0 1 3.02-.71c.288 0 .519.234.519.523a.52.52 0 0 1-.52.52 5.82 5.82 0 0 0-5.66 4.476 6.853 6.853 0 0 1 2.094-1.086.553.553 0 0 1 .227-.055 6.823 6.823 0 0 1 1.847-.277h4.102c.945 0 1.715-.77 1.715-1.715a.523.523 0 0 1 1.043 0c0 .946.77 1.715 1.714 1.715a2.01 2.01 0 0 1 1.997 1.856.53.53 0 0 1 .03.16v5.972a3.53 3.53 0 0 1-1.386 2.793l-1.605 1.215c-.23.176-.473.32-.72.453v.23h4.911V37.326c0-4.098-3.164-7.309-7.195-7.309h-.86zm-25 .776c-.12.297-.187.61-.187.93v1.492c0 .118.027.227.066.332.012.028.024.051.035.078.043.086.094.168.157.239.027.027.058.05.09.078a.955.955 0 0 0 .62.242h.747a.523.523 0 1 1 0 1.043h-.747c-.078 0-.148-.016-.222-.027v2.726l.168-.164a.99.99 0 0 0 .281-.687v-.114c0-.699.57-1.265 1.266-1.265h7.457c.699 0 1.27.566 1.27 1.265 0 .356.108.61.3.793l.144.141v-4.68a.223.223 0 0 0-.222-.226h-.746a.52.52 0 0 1-.52-.524.974.974 0 0 0-.973-.968h-7.457c-.605 0-1.156-.27-1.527-.704zm39.934.727a1.723 1.723 0 0 0-1.281 1.66v2.98c0 .126.102.227.227.227h11.93a.227.227 0 0 0 .226-.226v-2.239a.972.972 0 0 0-.973-.968h-8.203c-.91 0-1.675-.606-1.925-1.434zm-12.34 4.05a2.759 2.759 0 0 1-2.238 1.157H45.87a5.74 5.74 0 0 0-1.324.156h-.004v6.774c0 .773.375 1.511.996 1.972l1.672 1.243a4.729 4.729 0 0 0 5.64-.02l1.606-1.219c.61-.46.977-1.195.977-1.96v-5.895c-.004-.028-.02-.051-.02-.078 0-.54-.43-.973-.965-.973-.921 0-1.738-.46-2.238-1.156zm-25.32 1.169a.223.223 0 0 0-.222.226v.114c0 .535-.211 1.043-.59 1.422l-.903.898v4.242a4.705 4.705 0 0 0 4.696 4.7h1.492c2.59 0 4.699-2.11 4.699-4.7v-4.308l-.863-.817a2.021 2.021 0 0 1-.625-1.46c0-.216-.106-.317-.227-.317h-7.457zm25.707.457c.617 0 1.238.23 1.688.68a.519.519 0 0 1-.368.886.504.504 0 0 1-.37-.152c-.508-.504-1.391-.508-1.899 0a.515.515 0 0 1-.734 0 .519.519 0 0 1 0-.734 2.365 2.365 0 0 1 1.683-.68zm-5.219.004c.618 0 1.239.226 1.688.676a.519.519 0 0 1 0 .734.523.523 0 0 1-.738 0c-.508-.508-1.391-.508-1.899 0a.527.527 0 0 1-.738 0 .519.519 0 0 1 0-.734 2.394 2.394 0 0 1 1.687-.676zm-3.875.035a5.887 5.887 0 0 0-1.195.719V48.36h4.926v-.25a6.085 6.085 0 0 1-.645-.399l-1.675-1.246a3.515 3.515 0 0 1-1.41-2.809v-6.421zm20.512.191v.45H67.598a1.64 1.64 0 0 1 1.415.824c.14-.055.292-.09.453-.09.156 0 .304.035.445.09a1.627 1.627 0 0 1 1.414-.824h1.492c.051 0 .102.011.153.015.027-.004.05-.015.082-.015h1.851v-.45H64.016zm-36.062.461h.079a2.414 2.414 0 0 1 1.804.957.523.523 0 0 1-.105.73.527.527 0 0 1-.73-.105 1.338 1.338 0 0 0-1.048-.543c-.418.008-.8.207-1.05.54a.518.518 0 0 1-.727.105.519.519 0 0 1-.11-.727 2.41 2.41 0 0 1 1.81-.957h.077zm5.22 0h.077c.711.035 1.38.387 1.805.957a.523.523 0 0 1-.105.73.529.529 0 0 1-.73-.105 1.323 1.323 0 0 0-1.048-.539 1.33 1.33 0 0 0-1.05.54.517.517 0 0 1-.727.1.518.518 0 0 1-.106-.726 2.359 2.359 0 0 1 1.805-.957h.078zm14.206.926a.75.75 0 0 1 .746.75c0 .41-.336.742-.746.742a.743.743 0 0 1-.746-.742.75.75 0 0 1 .746-.75zm5.219 0a.75.75 0 0 1 .746.75c0 .41-.336.742-.746.742a.743.743 0 0 1-.746-.742.75.75 0 0 1 .746-.75zm10.152.102a.23.23 0 0 0-.227.226v2.238a.23.23 0 0 0 .227.227h.223v-2.691h-.223zm1.266 0v3.953a5.456 5.456 0 0 0 5.445 5.449 5.453 5.453 0 0 0 5.445-5.45v-3.952h-.566a1.7 1.7 0 0 1 .117.601 1.64 1.64 0 0 1-1.64 1.637h-1.493c-.77 0-1.418-.535-1.59-1.258 0-.004-.004-.008-.004-.012-.128-.336-.457-.257-.527-.004-.004.024-.023.043-.031.063a1.635 1.635 0 0 1-1.574 1.21h-1.493a1.64 1.64 0 0 1-1.64-1.636c0-.215.043-.414.117-.601h-.566zm2.09 0a.6.6 0 0 0 0 1.2l1.492-.001a.6.6 0 0 0 0-1.2h-1.493zm9.84 0v2.691h.206a.23.23 0 0 0 .227-.227v-2.238a.23.23 0 0 0-.227-.226h-.207zm-4.622.003a.598.598 0 1 0 0 1.196h1.492a.6.6 0 0 0 .598-.598.6.6 0 0 0-.598-.598h-1.492zm-47.414.024a.227.227 0 0 0-.226.226v2.235c0 .125.101.226.226.226h.227v-2.441c0-.004-.004-.008-.004-.008v-.238h-.223zm13.195 0v2.687h.211a.226.226 0 0 0 .223-.226v-2.235a.226.226 0 0 0-.223-.226h-.21zm29.746.2a.372.372 0 1 1-.266.637.37.37 0 0 1 0-.528c.07-.07.165-.11.266-.11zm5.215 0a.372.372 0 0 1 .266.636.372.372 0 1 1-.528-.527.37.37 0 0 1 .262-.11zm-44.06.394a.749.749 0 0 1 .747.746.746.746 0 1 1-.746-.746zm5.22 0a.749.749 0 0 1 .746.746.744.744 0 1 1-1.488 0c0-.41.332-.742.742-.746zm16.289 1.925c.133 0 .265.051.367.153a.223.223 0 0 0 .16.066.223.223 0 0 0 .16-.066.519.519 0 0 1 .735 0 .523.523 0 0 1 0 .738 1.262 1.262 0 0 1-1.79 0 .523.523 0 0 1 .368-.89zm19.199.864c.289 0 .52.234.52.52 0 .25.452.25.452 0a.52.52 0 1 1 1.04 0c0 .699-.57 1.269-1.266 1.269-.7 0-1.266-.57-1.266-1.27 0-.285.235-.52.52-.52zm-38.84.023c.289 0 .52.23.52.52 0 .246.448.246.448 0 0-.29.235-.52.524-.52.285 0 .52.23.52.52a1.265 1.265 0 1 1-2.531 0c0-.29.23-.52.519-.52zm18.305.781h3.726c.29 0 .524.235.524.52a2.389 2.389 0 0 1-2.387 2.387 2.388 2.388 0 0 1-2.383-2.387c0-.285.23-.52.52-.52zm.625 1.043a1.346 1.346 0 0 0 2.476 0h-2.476zm18.37.235a.524.524 0 0 1 .38.117c.964.805 2.843.805 3.808 0a.521.521 0 0 1 .735.07.525.525 0 0 1-.067.735c-.676.562-1.59.87-2.57.87-.98 0-1.895-.312-2.57-.87a.521.521 0 0 1-.067-.735.502.502 0 0 1 .352-.187zm-38.84.023a.524.524 0 0 1 .38.117c.964.805 2.843.805 3.808 0a.53.53 0 0 1 .735.067.521.521 0 0 1-.07.734c-.677.563-1.59.871-2.567.871-.98 0-1.895-.308-2.57-.87a.517.517 0 0 1-.067-.735.512.512 0 0 1 .352-.184zm19.939 4.137l.004 2.324 1.644 2.024 1.797-2.02v-2.324a5.763 5.763 0 0 1-1.703.265c-.59 0-1.176-.093-1.742-.269zm19.398.531v1.871l1.746 1.746 1.687-1.687v-1.89a6.35 6.35 0 0 1-1.644.218 6.452 6.452 0 0 1-1.79-.258zm-38.766.192v1.699l1.757 1.758 1.665-1.664v-1.79a6.02 6.02 0 0 1-.961.086h-1.493c-.332 0-.652-.035-.968-.09zm4.433 2.25l-1.914 1.914 1.031 1.03 1.914-1.913-1.03-1.031zm38.727 0l-.07.074h-.004L70.16 53.45l.75.75c.012.011.016.023.024.035l.25.25 1.918-1.914-1.036-1.031zm-44.02.058l-1.035 1.031 1.856 1.856 1.03-1.031-1.85-1.856zm38.781 0l-1.03 1.031 1.855 1.856.285-.285v-.004l.746-.742-1.856-1.856zm-14.457.13l-1.75 1.964.774.77c.008.007.015.023.023.035l.227.226 1.758-1.965-1.032-1.03zm-4.742.019l-1.027 1.027 1.57 1.934 1.027-1.028-1.57-1.933zm-12.34 1.382l-2.46 2.461a.52.52 0 0 1-.735 0l-.059-.058 1.36 10.414a.505.505 0 0 1-.098.379l-2.238 2.984a.52.52 0 0 1-.832 0l-2.239-2.984a.505.505 0 0 1-.097-.38l1.351-10.358-.004.004a.52.52 0 0 1-.738 0l-2.46-2.457h-1.395c-3.825 0-6.938 3.11-6.938 6.933v9.918h18.34v-11.41c0-.242.016-.476.043-.71.008-.075.024-.145.031-.22.024-.16.051-.32.086-.48l.063-.25a6.407 6.407 0 0 1 .379-1.05c.043-.094.086-.188.136-.278.055-.11.118-.215.18-.32.055-.094.11-.188.168-.278.067-.097.137-.191.207-.28a5.82 5.82 0 0 1 .39-.481c.079-.086.157-.172.24-.254.077-.078.163-.149.245-.227.09-.078.18-.16.274-.234.035-.028.062-.055.097-.082-.652-.2-1.328-.301-2.011-.301h-1.286zm7.246.004a5.399 5.399 0 0 0-2.918.864c-.058.035-.12.07-.176.109-.261.18-.507.379-.73.602-.027.027-.05.058-.078.09-.2.199-.375.417-.54.644-.038.055-.081.113-.116.168a5.422 5.422 0 0 0-.454.84c-.007.015-.011.035-.02.054-.112.274-.198.559-.265.852a5.5 5.5 0 0 0-.05.246 5.298 5.298 0 0 0-.098.973v11.41h4.164v-9.153a.523.523 0 0 1 1.043 0v9.153h14.62v-9.153a.523.523 0 0 1 1.044 0v9.153h2.715V59.32a.52.52 0 1 1 1.039 0v10.66h1.18V58.575c0-.336-.044-.656-.098-.977-.016-.082-.035-.16-.051-.242a5.641 5.641 0 0 0-.27-.86c-.007-.015-.007-.03-.015-.046a5.129 5.129 0 0 0-.457-.84c-.035-.055-.078-.11-.117-.164a5.19 5.19 0 0 0-.543-.66c-.024-.024-.043-.051-.07-.075a4.96 4.96 0 0 0-.735-.605c-.055-.039-.11-.07-.168-.11a5.422 5.422 0 0 0-2.922-.863h-2.98l-2.41 2.7a.521.521 0 0 1-.376.171h-.011a.525.525 0 0 1-.364-.148l1.356 10.352a.535.535 0 0 1-.102.383l-2.238 2.98a.53.53 0 0 1-.414.211.531.531 0 0 1-.418-.21l-2.238-2.981a.514.514 0 0 1-.098-.383l1.356-10.363-.008.008a.52.52 0 0 1-.367.152h-.028a.528.528 0 0 1-.379-.191l-2.18-2.68h-3.015zm20.891 0a6.81 6.81 0 0 0-2.023.305c.031.023.062.055.094.082.09.07.171.149.257.223.09.078.176.152.262.238.07.07.137.148.203.223.153.164.297.336.43.515.066.09.133.176.195.27.059.094.113.187.172.281.063.106.121.207.18.316.047.094.09.188.133.282.054.117.105.238.156.363.031.09.066.176.097.27.047.132.086.273.122.414.023.082.05.168.07.25.035.16.058.32.082.48a6.096 6.096 0 0 1 .074.93v11.41h12.398V59.32c0-.29.23-.52.52-.52.289 0 .52.23.52.52v10.664h4.925v-9.918a6.94 6.94 0 0 0-6.934-6.934h-1.347l-2.457 2.457a.523.523 0 0 1-.73.004l1.35 10.352a.505.505 0 0 1-.097.379l-2.238 2.984a.527.527 0 0 1-.418.207.526.526 0 0 1-.414-.207l-2.238-2.984a.505.505 0 0 1-.098-.379l.773-5.93c0-.047.008-.086.016-.129l.562-4.3-.003.004a.523.523 0 0 1-.739 0l-2.46-2.457h-1.395zM30.64 54.184l-.383.383.383.383.383-.383-.383-.383zm38.777.008l-.375.375.38.383.378-.38-.383-.378zm-19.52.262l-.27.27-.1.105.378.383.375-.375-.383-.383zm-19.66 1.562l-.328 2.5 1.297-1.297-.16-1.203-.035.04a.52.52 0 0 1-.738 0l-.036-.04zm38.781 0l-.332 2.516 1.301-1.297-.156-1.219-.04.04a.523.523 0 0 1-.738 0l-.035-.04zm-19.52.262l-.238 1.832 1.14-1.14-.09-.692-.034.039a.527.527 0 0 1-.739 0l-.039-.04zm1.07 1.992l-1.53 1.531-.294 2.254 2.055-2.05-.23-1.735zm-19.195.254l-1.687 1.688-.219 1.683 2.074-2.074-.168-1.297zm38.785.012l-1.69 1.691-.243 1.84 2.117-2.117-.184-1.414zm-38.445 2.586l-2.468 2.468-.282 2.145 2.93-2.926c.012-.012.024-.015.035-.027l-.215-1.66zm38.801.132l-2.507 2.504-.258 1.977 2.926-2.926c.011-.012.027-.015.039-.027l-.2-1.528zm-19.547.055l-2.445 2.442-.293 2.246 2.93-2.926c.012-.012.023-.016.035-.024l-.227-1.738zM32.1 64.075l-2.574 2.57 1.114 1.484 1.695-2.257-.235-1.797zm38.781 0l-2.57 2.57 1.11 1.484 1.695-2.257-.235-1.797zm-19.52.261l-2.566 2.57 1.11 1.485 1.69-2.258-.234-1.797z"/>
</svg>
