<?xml version="1.0" encoding="UTF-8"?>
<svg width="59px" height="60px" viewBox="0 0 59 60" version="1.1" xmlns="http://www.w3.org/2000/svg" xmlns:xlink="http://www.w3.org/1999/xlink">
    <!-- Generator: Sketch 47.1 (45422) - http://www.bohemiancoding.com/sketch -->
    <title>np_close_1014483_000000</title>
    <desc>Created with Sketch.</desc>
    <defs></defs>
    <g id="Page-1" stroke="none" stroke-width="1" fill="none" fill-rule="evenodd">
        <g id="signOutSignIn2" transform="translate(-1349.000000, -24.000000)" fill="#000000">
            <g id="np_close_1014483_000000" transform="translate(1349.000000, 24.000000)">
                <path d="M58.3494985,1.4236805 C57.5852814,0.654954529 56.3613114,0.654954529 55.6747389,1.4236805 L29.8434391,27.328977 L3.3258725,0.576544479 C2.56165548,-0.192181493 1.33768548,-0.192181493 0.651112907,0.576544479 C-0.11310412,1.34527045 -0.11310412,2.57646197 0.651112907,3.26708538 L27.1686795,30.019518 L0.57316277,56.7719505 C-0.191054257,57.5406765 -0.191054257,58.771868 0.57316277,59.4624914 C0.955271284,59.8468544 1.41502425,60 1.94936479,60 C2.48370534,60 2.9434583,59.8468544 3.32556682,59.4624914 L29.9210836,32.7100589 L55.6744332,58.6153554 C56.0565417,58.9997184 56.5162947,59.152864 57.0506352,59.152864 C57.584991,59.152864 58.0447287,58.9997184 58.4268372,58.6153554 C59.1910543,57.8466294 59.1910543,56.6154379 58.4268372,55.9248145 L32.5955375,30.019518 L58.3488871,4.1142214 C59.0354902,3.34549543 59.0354902,2.11430391 58.3488871,1.4236805 L58.3494985,1.4236805 Z" id="Shape"></path>
            </g>
        </g>
    </g>
</svg>