<?xml version="1.0" encoding="UTF-8"?>
<svg width="108px" height="74px" viewBox="0 0 108 74" version="1.1" xmlns="http://www.w3.org/2000/svg" xmlns:xlink="http://www.w3.org/1999/xlink">
    <!-- Generator: Sketch 50.2 (55047) - http://www.bohemiancoding.com/sketch -->
    <title>Group 8</title>
    <desc>Created with Sketch.</desc>
    <defs>
        <polygon id="path-1" points="4.1428287e-05 0.160358436 95.0661253 0.160358436 95.0661253 66.7950203 4.1428287e-05 66.7950203"></polygon>
        <polygon id="path-3" points="0.329989916 0.503875672 88.4501849 0.503875672 88.4501849 68.0295652 0.329989916 68.0295652"></polygon>
    </defs>
    <g id="Page-1" stroke="none" stroke-width="1" fill="none" fill-rule="evenodd">
        <g id="Careeer-V3-Copy-2" transform="translate(-954.000000, -129.000000)">
            <g id="Group-8" transform="translate(954.000000, 129.000000)">
                <g id="Group-2">
                    <g id="Group">
                        <g id="Group-3" transform="translate(0.000000, 0.183590)">
                            <mask id="mask-2" fill="white">
                                <use xlink:href="#path-1"></use>
                            </mask>
                            <g id="Clip-2"></g>
                            <path d="M94.1632941,21.8960401 C90.1790924,5.45363814 70.6782857,0.213512557 56.008437,0.159995609 C50.6837647,0.140947204 43.135563,0.977262901 35.4875294,2.88119636 C23.9632941,4.69351606 13.3330084,9.20073157 5.91821849,19.3499033 C-3.59939496,32.3753842 -1.54648739,48.3452044 11.4207731,57.9492289 C29.7898487,71.5543256 60.8421176,68.0847946 79.5215798,56.8770758 C91.5467899,49.6613585 97.4577479,35.4947874 94.1632941,21.8960401" id="Fill-1" fill="#8A8BC3" mask="url(#mask-2)"></path>
                        </g>
                        <g id="Group-6" transform="translate(19.058824, 5.062511)">
                            <mask id="mask-4" fill="white">
                                <use xlink:href="#path-3"></use>
                            </mask>
                            <g id="Clip-5"></g>
                            <path d="M75.3092168,46.3316175 C78.3622588,42.2561659 79.9713681,37.6328458 79.9713681,32.9623582 C79.9713681,17.6982361 63.1723765,5.26960525 42.5343933,5.26960525 C21.8855193,5.26960525 5.09923361,17.6982361 5.09923361,32.9623582 C5.09923361,48.2382722 21.8855193,60.6669031 42.5343933,60.6669031 C48.0668975,60.6669031 53.3961076,59.784327 58.3795361,58.0572715 C59.1663933,57.3533876 60.3471328,57.2708445 61.2773849,57.8658804 C66.3797042,61.1304143 74.5350655,62.6443089 80.1029647,63.3001183 C76.9909311,59.3670762 73.6048134,53.4566281 74.8563429,47.3094356 C74.8563429,47.2849448 74.8681412,47.2613611 74.8681412,47.2377774 C74.8808471,47.2014947 74.8926454,47.1779109 74.9044437,47.1425353 C74.9879395,46.8314114 75.1313345,46.5701761 75.3092168,46.3316175 M87.6139563,64.407647 C88.3881076,65.0634564 88.6513008,65.8498834 88.293721,66.7905118 C87.9352336,67.7084635 87.0530824,68.0295652 86.0638387,68.0295652 L85.9921412,68.0295652 C85.2996706,68.0295652 69.7413176,67.7211625 60.120242,62.4892005 C60.1084437,62.5018994 60.0848471,62.5127842 60.0603429,62.5254832 C54.5405445,64.4548145 48.6386622,65.4326326 42.5343933,65.4326326 C19.2626622,65.4326326 0.329989916,50.8714874 0.329989916,32.9623582 C0.329989916,15.0650209 19.2626622,0.503875672 42.5343933,0.503875672 C65.8079395,0.503875672 84.7406118,15.0650209 84.7406118,32.9623582 C84.7406118,38.4791392 82.9155025,43.9006782 79.4703933,48.6791067 C78.5283429,55.0185974 84.9783933,62.143608 87.6139563,64.407647" id="Fill-4" fill="#493B80" mask="url(#mask-4)"></path>
                        </g>
                    </g>
                </g>
                <path d="M64.2923607,29.2572215 C64.7587617,29.2572215 65.1286603,29.3936254 65.4020678,29.6664374 C65.6754752,29.9392494 65.8121769,30.3016942 65.8121769,30.7537827 L65.8121769,44.480055 C65.8121769,44.9321435 65.6714546,45.2984855 65.3900057,45.5790922 C65.1085569,45.8596988 64.7426789,46 64.2923607,46 C63.8259598,46 63.4560611,45.8596988 63.1826536,45.5790922 C62.9092462,45.2984855 62.7725445,44.9321435 62.7725445,44.480055 L62.7725445,38.7042641 L54.0637565,38.7042641 L54.0637565,44.480055 C54.0637565,44.9321435 53.9230341,45.2984855 53.6415853,45.5790922 C53.3601364,45.8596988 52.9862172,46 52.5198162,46 C52.069498,46 51.70362,45.8596988 51.4221712,45.5790922 C51.1407223,45.2984855 51,44.9321435 51,44.480055 L51,30.7537827 C51,30.3016942 51.1367017,29.9392494 51.4101091,29.6664374 C51.6835166,29.3936254 52.0534152,29.2572215 52.5198162,29.2572215 C52.9862172,29.2572215 53.3601364,29.3936254 53.6415853,29.6664374 C53.9230341,29.9392494 54.0637565,30.3016942 54.0637565,30.7537827 L54.0637565,36.2723521 L62.7725445,36.2723521 L62.7725445,30.7537827 C62.7725445,30.3016942 62.9092462,29.9392494 63.1826536,29.6664374 C63.4560611,29.3936254 63.8259598,29.2572215 64.2923607,29.2572215 Z M70.9103963,46 C70.476161,46 70.1183242,45.8791851 69.8368754,45.6375516 C69.5554265,45.3959181 69.4147042,45.0490623 69.4147042,44.5969739 L69.4147042,35.5708391 C69.4147042,35.1187506 69.5554265,34.7757921 69.8368754,34.5419532 C70.1183242,34.3081144 70.476161,34.1911967 70.9103963,34.1911967 C71.3446317,34.1911967 71.7064891,34.3081144 71.9959793,34.5419532 C72.2854696,34.7757921 72.4302125,35.1187506 72.4302125,35.5708391 L72.4302125,44.5969739 C72.4302125,45.0490623 72.2854696,45.3959181 71.9959793,45.6375516 C71.7064891,45.8791851 71.3446317,46 70.9103963,46 Z M70.9103963,32.1100413 C70.3635814,32.1100413 69.9293526,31.9658428 69.6076967,31.6774415 C69.2860409,31.3890403 69.1252154,31.0110065 69.1252154,30.5433287 C69.1252154,30.075651 69.2860409,29.7015145 69.6076967,29.4209078 C69.9293526,29.1403012 70.3635814,29 70.9103963,29 C71.4411284,29 71.8713367,29.1403012 72.2010339,29.4209078 C72.5307311,29.7015145 72.6955773,30.075651 72.6955773,30.5433287 C72.6955773,31.0110065 72.5347518,31.3890403 72.2130959,31.6774415 C71.8914401,31.9658428 71.4572112,32.1100413 70.9103963,32.1100413 Z M77.1665709,41.0894085 C76.9253291,41.0894085 76.7202765,41.0114634 76.5514072,40.8555708 C76.3825379,40.6996783 76.282022,40.4736374 76.2498564,40.1774415 L75.3572659,31.0811554 L75.3331419,30.8473177 C75.3331419,30.3640508 75.5060293,29.9782224 75.8518093,29.6898212 C76.1975893,29.4014199 76.6358388,29.2572215 77.1665709,29.2572215 C77.6973031,29.2572215 78.1355526,29.4014199 78.4813326,29.6898212 C78.8271126,29.9782224 79,30.3640508 79,30.8473177 L78.9758759,31.1045392 L78.0832855,40.1774415 C78.0511199,40.4736374 77.9506039,40.6996783 77.7817346,40.8555708 C77.6128653,41.0114634 77.4078128,41.0894085 77.1665709,41.0894085 Z M77.1665709,46 C76.6519216,46 76.225734,45.832418 75.8879954,45.497249 C75.5502568,45.1620799 75.38139,44.7450736 75.38139,44.2462173 C75.38139,43.7473611 75.5502568,43.3303547 75.8879954,42.9951857 C76.225734,42.6600167 76.6519216,42.4924347 77.1665709,42.4924347 C77.6812203,42.4924347 78.1074078,42.6600167 78.4451465,42.9951857 C78.7828851,43.3303547 78.9517519,43.7473611 78.9517519,44.2462173 C78.9517519,44.7450736 78.7828851,45.1620799 78.4451465,45.497249 C78.1074078,45.832418 77.6812203,46 77.1665709,46 Z" id="Hi!" fill="#4D3886"></path>
            </g>
        </g>
    </g>
</svg>