<?xml version="1.0" encoding="UTF-8"?>
<svg width="135px" height="122px" viewBox="0 0 135 122" version="1.1" xmlns="http://www.w3.org/2000/svg" xmlns:xlink="http://www.w3.org/1999/xlink">
    <!-- Generator: Sketch 50.2 (55047) - http://www.bohemiancoding.com/sketch -->
    <title>Icon_On-DemandSupport</title>
    <desc>Created with Sketch.</desc>
    <defs></defs>
    <g id="Page-1" stroke="none" stroke-width="1" fill="none" fill-rule="evenodd">
        <g id="Careeer-V3" transform="translate(-573.000000, -1827.000000)">
            <g id="On-demand-sipport" transform="translate(536.000000, 1828.000000)">
                <g id="Icon_On-DemandSupport" transform="translate(37.000000, 0.000000)">
                    <path d="M35.3551181,73.2743363 C35.3551181,84.8389381 38.5440945,91.720354 26.9149606,91.720354 C15.2858268,91.720354 0,83.3946903 0,71.8300885 C0,60.2654867 15.3389764,49.8371681 26.9149606,49.8371681 C38.4909449,49.8371681 35.3551181,61.7097345 35.3551181,73.2743363 Z" id="Shape" fill="#68CAD4" fill-rule="nonzero"></path>
                    <path d="M99.3472441,73.2743363 C99.3472441,84.8389381 96.2114173,91.720354 107.787402,91.720354 C119.363386,91.720354 134.702362,83.3946903 134.702362,71.8300885 C134.702362,60.2654867 119.363386,49.8371681 107.787402,49.8371681 C96.2114173,49.8371681 99.3472441,61.7097345 99.3472441,73.2743363 Z" id="Shape" fill="#68CAD4" fill-rule="nonzero"></path>
                    <path d="M13.4043307,54.3823009 C13.4043307,24.641034 37.5381216,0.530973451 67.3086614,0.530973451 C97.0792012,0.530973451 121.212992,24.641034 121.212992,54.3823009" id="_Path_" stroke="#4A3C81" stroke-width="3"></path>
                    <path d="M113.091732,54.0530973 L119.990551,54.0530973 C126.935641,54.0530973 132.565748,59.6776688 132.565748,66.6159292 L132.565748,72.9876106 C132.565748,79.9258711 126.935641,85.5504425 119.990551,85.5504425 L113.091732,85.5504425 L113.091732,54.0530973 Z" id="_Rectangle_" stroke="#4A3C81" stroke-width="3"></path>
                    <rect id="_Rectangle_2" stroke="#4A3C81" stroke-width="3" x="103.546063" y="47.8513274" width="9.53503937" height="43.8690265" rx="3.58"></rect>
                    <rect id="_Rectangle_3" stroke="#4A3C81" stroke-width="3" transform="translate(26.293110, 69.785841) rotate(180.000000) translate(-26.293110, -69.785841) " x="21.5255906" y="47.8513274" width="9.53503937" height="43.8690265" rx="3.58"></rect>
                    <path d="M2.04094488,54.0530927 L8.93976378,54.0530972 C12.2767547,54.0502792 15.4780368,55.3726153 17.8386432,57.7289088 C20.1992497,60.0852023 21.5255917,63.2822182 21.5255906,66.6159291 L21.5255906,72.9876105 C21.5080018,79.9175733 15.8765672,85.5244642 8.93976378,85.5185839 L2.04094488,85.5185886 L2.04094488,54.0530927 Z" id="_Rectangle_4" stroke="#4A3C81" stroke-width="3" transform="translate(11.783268, 69.785841) rotate(180.000000) translate(-11.783268, -69.785841) "></path>
                    <path d="M79.0972441,119.469027 L84.7417323,119.469027 C100.394855,119.469028 113.085863,106.795252 113.091732,91.1575221 L113.091732,85.5185841" id="_Path_2" stroke="#4A3C81" stroke-width="3"></path>
                    <rect id="_Rectangle_5" stroke="#4A3C81" stroke-width="3" x="68.3503937" y="109.486726" width="16.0405512" height="9.98230088" rx="3.75"></rect>
                    <path d="M53.7023622,69.780531 L57.1783465,69.780531" id="Shape" stroke="#4A3C81" stroke-width="3"></path>
                    <path d="M65.5653543,69.780531 L69.0413386,69.780531" id="Shape" stroke="#4A3C81" stroke-width="3"></path>
                    <path d="M77.4283465,69.780531 L80.9043307,69.780531" id="Shape" stroke="#4A3C81" stroke-width="3"></path>
                </g>
            </g>
        </g>
    </g>
</svg>