<?xml version="1.0" encoding="UTF-8"?>
<svg width="281px" height="288px" viewBox="0 0 281 288" version="1.1" xmlns="http://www.w3.org/2000/svg" xmlns:xlink="http://www.w3.org/1999/xlink">
    <!-- Generator: Sketch 50.2 (55047) - http://www.bohemiancoding.com/sketch -->
    <title>Group 10</title>
    <desc>Created with Sketch.</desc>
    <defs></defs>
    <g id="Page-1" stroke="none" stroke-width="1" fill="none" fill-rule="evenodd">
        <g id="FAQ" transform="translate(-742.000000, -3577.000000)" fill-rule="nonzero">
            <g id="Group-10" transform="translate(742.000000, 3577.000000)">
                <g id="Group-7-Copy" opacity="0.7" transform="translate(173.000000, 102.000000)">
                    <path d="M91.817266,20.9631804 C91.7109913,15.5280471 87.3008487,11.1473053 81.8292382,11.041739 C58.6751736,9.56254232 33.2329427,6.13513531 10.8416003,13.8918986 C6.28342754,13.6032748 1.76157494,15.9483428 1.07149301,20.9631804 C0.0615923754,23.3702623 0.0615923754,26.0783549 1.07149301,28.4854368 C0.599331694,42.4115327 -4.48548248,60.432478 12.548645,66.0245631 C22.7727535,69.3798142 33.8685445,67.6480717 44.3468937,66.7100445 C56.9933668,65.3717663 69.7141962,64.8535507 82.4285198,65.1586919 C88.3850165,65.4112376 91.7264658,60.414439 92.4165477,55.2372505 C93.9419919,43.8185735 92.0170266,32.4359744 91.817266,20.9631804 Z" id="Shape" fill="#FCB0DC"></path>
                    <path d="M108,3.33928571 L108,49.4285714 C108,51.401017 106.358994,53 104.33471,53 L22.6720579,53 C20.6477743,53 19.0067683,51.401017 19.0067683,49.4285714 L19.0067683,3.33928571 C19.0067683,3.33928571 19.0067683,3.33928571 19.0067683,3.33928571 C18.9977439,3.20848095 18.9977439,3.07723334 19.0067683,2.94642857 C18.9979966,2.83945617 18.9979966,2.7319724 19.0067683,2.625 C19.0287656,2.5157163 19.059401,2.40825324 19.0984005,2.30357143 C19.0984005,2.17857143 19.1900328,2.07142857 19.2266857,1.96428571 L19.3916237,1.67857143 C19.4520872,1.5675545 19.5194079,1.46021443 19.5932146,1.35714286 L19.7581527,1.19642857 C19.8290547,1.09483663 19.9155927,1.00449175 20.0147229,0.928571429 L20.2896197,0.696428571 L20.7294544,0.410714286 L21.0776569,0.232142857 L21.3708801,0.107142857 C21.4864477,0.0527038051 21.610172,0.0165370012 21.7374091,0 L22.0489587,0 L22.4521405,0 L104.572954,0 L104.939483,0 L105.287686,0 C105.406234,0.0275520866 105.522601,0.063358339 105.635888,0.107142857 L105.947438,0.232142857 L106.277314,0.410714286 L106.552211,0.607142857 L106.827107,0.839285714 C106.92183,0.919763351 107.007806,1.00952142 107.083678,1.10714286 L107.248616,1.26785714 C107.322422,1.37092871 107.389743,1.47826878 107.450207,1.58928571 L107.615145,1.875 L107.725103,2.21428571 C107.76993,2.31860712 107.806686,2.42604974 107.835062,2.53571429 C107.843834,2.64268669 107.843834,2.75017046 107.835062,2.85714286 C107.844086,2.98794762 107.844086,3.11919523 107.835062,3.25 C107.835062,3.25 108,3.30357143 108,3.33928571 Z M100.669421,45.8571429 L100.669421,10.5178571 L65.7208844,36.2678571 C64.4102618,37.238212 62.5965064,37.238212 61.2858839,36.2678571 L26.3373475,10.5178571 L26.3373475,45.8571429 L100.669421,45.8571429 Z M63.5033841,28.9821429 L93.4121474,6.94642857 L33.557968,6.94642857 L63.5033841,28.9821429 Z" id="Shape" fill="#493B81"></path>
                </g>
                <g id="Group-7-Copy-2" opacity="0.498102679" transform="translate(95.000000, 45.000000)">
                    <path d="M68.1224877,15.5161623 C68.0436387,11.6470844 64.7715974,8.52859019 60.7120154,8.45344135 C43.5331933,7.40045386 24.6566994,4.9606048 8.04376793,10.4823685 C4.66189785,10.2769075 1.30697495,11.9462779 0.794978686,15.5161623 C0.0456975688,17.2296783 0.0456975688,19.157473 0.794978686,20.8709889 C0.444665451,30.7844809 -3.32793862,43.6129504 9.31028501,47.5937568 C16.8959139,49.9822406 25.1282749,48.7494748 32.902534,48.0817266 C42.2854012,47.129054 51.7234359,46.7601547 61.1566438,46.9773739 C65.5759799,47.1571522 68.0551198,43.6001091 68.567116,39.9146529 C69.6988973,31.7861031 68.2706971,23.683236 68.1224877,15.5161623 Z" id="Shape" fill="#7ED0D9"></path>
                    <path d="M79,2.45721024 L79,36.3719677 C79,37.8233898 77.8015124,39 76.3231031,39 L16.68184,39 C15.2034307,39 14.0049431,37.8233898 14.0049431,36.3719677 L14.0049431,2.45721024 C14.0049431,2.45721024 14.0049431,2.45721024 14.0049431,2.45721024 C13.9983523,2.36095768 13.9983523,2.26437925 14.0049431,2.16812668 C13.9985368,2.08941114 13.9985368,2.01031931 14.0049431,1.93160377 C14.0210086,1.85118746 14.0433827,1.77211087 14.0718656,1.69508086 C14.0718656,1.60309973 14.138788,1.52425876 14.1655569,1.44541779 L14.2860173,1.2351752 C14.3301761,1.1534835 14.3793428,1.07449741 14.4332466,0.998652291 L14.553707,0.880390836 C14.6054894,0.805634498 14.6686913,0.739154308 14.7410898,0.68328841 L14.9418571,0.512466307 L15.2630847,0.30222372 L15.5173899,0.170822102 L15.7315416,0.0788409704 C15.8159449,0.0387820452 15.9063054,0.0121687367 15.9992313,0 L16.2267676,0 L16.5212262,0 L76.4971014,0 L76.7647911,0 L77.0190963,0 C77.1056766,0.0202741769 77.1906633,0.046622174 77.2734015,0.0788409704 L77.5009377,0.170822102 L77.7418585,0.30222372 L77.9426257,0.446765499 L78.143393,0.617587601 C78.2125725,0.676806994 78.2753639,0.742855385 78.3307758,0.814690027 L78.4512361,0.932951482 C78.5051399,1.0087966 78.5543067,1.08778269 78.5984655,1.16947439 L78.7189258,1.37971698 L78.7992327,1.62938005 C78.8319715,1.70614486 78.8588154,1.78520641 78.8795396,1.86590296 C78.8859459,1.94461851 78.8859459,2.02371034 78.8795396,2.10242588 C78.8861305,2.19867844 78.8861305,2.29525687 78.8795396,2.39150943 C78.8795396,2.39150943 79,2.43092992 79,2.45721024 Z M73.6462062,33.7439353 L73.6462062,7.73955526 L48.1219942,26.6876685 C47.164798,27.4017032 45.8401452,27.4017032 44.8829489,26.6876685 L19.3587369,7.73955526 L19.3587369,33.7439353 L73.6462062,33.7439353 Z M46.5024716,21.3264825 L68.3459503,5.11152291 L24.6322238,5.11152291 L46.5024716,21.3264825 Z" id="Shape" fill="#493B81"></path>
                </g>
                <g id="Group-7-Copy-2" opacity="0.3" transform="translate(171.000000, 0.000000)">
                    <path d="M38.5040148,8.86637846 C38.459448,6.65547678 36.6100333,4.87348011 34.315487,4.83053791 C24.605718,4.22883078 13.9363953,2.83463131 4.54647752,5.98992483 C2.63498574,5.87251856 0.738724973,6.82644451 0.449335779,8.86637846 C0.0258290607,9.84553045 0.0258290607,10.9471274 0.449335779,11.9262794 C0.251332646,17.5911319 -1.88100878,24.921686 5.262335,27.1964325 C9.54986438,28.5612803 14.202938,27.8568427 18.5970844,27.4752723 C23.9004441,26.930888 29.2349855,26.7200884 34.5667986,26.8442136 C37.0646843,26.9469441 38.4659373,24.9143481 38.7553265,22.8083731 C39.3950289,18.1634875 38.5877853,13.5332777 38.5040148,8.86637846 Z" id="Shape" fill="#FF8465"></path>
                    <path d="M45,1.3861186 L45,20.5175202 C45,21.3362712 44.317784,22 43.4762279,22 L9.52658587,22 C8.68502978,22 8.00281378,21.3362712 8.00281378,20.5175202 L8.00281378,1.3861186 C8.00281378,1.3861186 8.00281378,1.3861186 8.00281378,1.3861186 C7.99906207,1.33182228 7.99906207,1.27734214 8.00281378,1.22304582 C7.99916712,1.17864218 7.99916712,1.13402628 8.00281378,1.08962264 C8.01195874,1.0442596 8.02469479,0.999652287 8.04090809,0.956199461 C8.04090809,0.904312668 8.07900239,0.859838275 8.09424011,0.815363881 L8.16280985,0.696765499 C8.18794638,0.650682999 8.21593362,0.606126743 8.24661732,0.563342318 L8.31518706,0.496630728 C8.3446632,0.454460486 8.38063966,0.416958841 8.42185111,0.385444744 L8.53613401,0.289083558 L8.71898666,0.170485175 L8.86374501,0.096361186 L8.98564678,0.0444743935 C9.03369173,0.0218770512 9.0851277,0.0068644156 9.13802399,0 L9.26754461,0 L9.43515954,0 L43.5752731,0 L43.7276503,0 L43.8724087,0 C43.9216928,0.0114367152 43.9700699,0.0262996879 44.017167,0.0444743935 L44.1466876,0.096361186 L44.2838271,0.170485175 L44.39811,0.252021563 L44.5123929,0.348382749 C44.5517721,0.381788561 44.5875148,0.419046627 44.619057,0.459568733 L44.6876267,0.526280323 C44.7183104,0.569064749 44.7462977,0.613621004 44.7714342,0.659703504 L44.8400039,0.778301887 L44.8857171,0.919137466 C44.904353,0.96244069 44.9196334,1.00703952 44.9314303,1.05256065 C44.9350769,1.09696429 44.9350769,1.14158019 44.9314303,1.18598383 C44.935182,1.24028015 44.935182,1.29476029 44.9314303,1.3490566 C44.9314303,1.3490566 45,1.3712938 45,1.3861186 Z M41.9524558,19.0350404 L41.9524558,4.36590296 L27.423289,15.0545822 C26.8784235,15.457371 26.1243903,15.457371 25.5795248,15.0545822 L11.050358,4.36590296 L11.050358,19.0350404 L41.9524558,19.0350404 Z M26.5014069,12.0303235 L38.9353871,2.88342318 L14.052189,2.88342318 L26.5014069,12.0303235 Z" id="Shape" fill="#493B81"></path>
                </g>
                <g id="Group-7" transform="translate(0.000000, 161.000000)">
                    <path d="M172.774425,39.3042346 C172.574446,29.1709353 164.275791,21.0034505 153.979749,20.8066321 C110.410273,18.0488077 62.5351072,11.6587269 20.4008607,26.1204888 C11.823654,25.5823768 3.31479154,29.9545373 2.01625029,39.3042346 C0.115899631,43.7920146 0.115899631,48.8410006 2.01625029,53.3287805 C1.12777469,79.2926881 -8.44042403,112.891061 23.6130417,123.316982 C42.8519555,129.572535 63.731132,126.343862 83.4484558,124.594998 C107.245583,122.099903 131.182627,121.133739 155.10743,121.702646 C166.315891,122.173494 172.603565,112.857429 173.902106,103.205043 C176.772565,81.9159844 173.150319,60.6941895 172.774425,39.3042346 Z" id="Shape" fill="#8A8BC4"></path>
                    <path d="M202,6.30053908 L202,93.2614555 C202,96.9830509 198.920809,100 195.122434,100 L41.8902659,100 C38.0918912,100 35.0127001,96.9830509 35.0127001,93.2614555 L35.0127001,6.30053908 C35.0127001,6.30053908 35.0127001,6.30053908 35.0127001,6.30053908 C34.9957666,6.05373764 34.9957666,5.80610064 35.0127001,5.55929919 C34.9962408,5.35746447 34.9962408,5.15466491 35.0127001,4.95283019 C35.053976,4.74663452 35.1114603,4.54387403 35.1846392,4.34636119 C35.1846392,4.11051213 35.3565783,3.9083558 35.425354,3.70619946 L35.7348445,3.1671159 C35.8482985,2.95764999 35.9746193,2.75512156 36.1131106,2.5606469 L36.4226011,2.2574124 C36.555642,2.06572948 36.7180222,1.89526746 36.9040307,1.75202156 L37.4198481,1.31401617 L38.245156,0.774932615 L38.8985248,0.438005391 L39.4487301,0.202156334 C39.6655816,0.0994411416 39.8977385,0.0312018891 40.1364866,0 L40.7210797,0 L41.477612,0 L195.569476,0 L196.257232,0 L196.910601,0 C197.133046,0.051985069 197.351396,0.119544036 197.56397,0.202156334 L198.148563,0.438005391 L198.767544,0.774932615 L199.283361,1.14555256 L199.799179,1.58355795 C199.976917,1.73540255 200.138243,1.9047574 200.280609,2.08894879 L200.590099,2.39218329 C200.72859,2.58665795 200.854911,2.78918638 200.968365,2.99865229 L201.277856,3.53773585 L201.484183,4.17789757 C201.568296,4.37473041 201.637264,4.57745234 201.69051,4.78436658 C201.706969,4.9862013 201.706969,5.18900086 201.69051,5.39083558 C201.707443,5.63763703 201.707443,5.88527403 201.69051,6.13207547 C201.69051,6.13207547 202,6.23315364 202,6.30053908 Z M188.244868,86.5229111 L188.244868,19.8450135 L122.667277,68.4299191 C120.208019,70.2607774 116.804681,70.2607774 114.345423,68.4299191 L48.7678318,19.8450135 L48.7678318,86.5229111 L188.244868,86.5229111 Z M118.50635,54.6832884 L174.627288,13.106469 L62.3166367,13.106469 L118.50635,54.6832884 Z" id="Shape" fill="#493B81"></path>
                </g>
            </g>
        </g>
    </g>
</svg>