<?xml version="1.0" encoding="UTF-8"?>
<svg width="165px" height="175px" viewBox="0 0 165 175" version="1.1" xmlns="http://www.w3.org/2000/svg" xmlns:xlink="http://www.w3.org/1999/xlink">
    <!-- Generator: Sketch 50.2 (55047) - http://www.bohemiancoding.com/sketch -->
    <title>Group 7</title>
    <desc>Created with Sketch.</desc>
    <defs>
        <polygon id="path-1" points="0.358673796 0.121806603 1.28366247 0.121806603 1.28366247 1.98056259 0.358673796 1.98056259"></polygon>
        <polygon id="path-3" points="0.342889601 0.462390774 1.56136097 0.462390774 1.56136097 4.62754452 0.342889601 4.62754452"></polygon>
        <polygon id="path-5" points="0 0.227789512 4.15951772 0.227789512 4.15951772 1.4481317 0 1.4481317"></polygon>
        <polygon id="path-7" points="0.537900424 0.242800187 1.92509905 0.242800187 1.92509905 3.94790557 0.537900424 3.94790557"></polygon>
    </defs>
    <g id="Page-1" stroke="none" stroke-width="1" fill="none" fill-rule="evenodd">
        <g id="Careeer-V3-Copy-2" transform="translate(-205.000000, -86.000000)">
            <g id="Group-7" transform="translate(205.000000, 86.000000)">
                <g id="Group-2" transform="translate(72.000000, 68.000000)">
                    <g id="Group" transform="translate(35.319498, 0.000000)">
                        <path d="M37.0916004,11.1550336 C27.1796446,4.05458575 11.7623958,9.34739342 6.84689369,19.9719265 C4.23967114,25.6062805 4.19283481,31.896427 5.59156432,37.8607102 C6.43114896,41.4417198 7.77957277,44.8786758 9.49459209,48.1239476 C11.2975018,51.5347648 14.2192795,54.3414864 15.7105252,57.9004232 C16.565722,59.9421505 18.3530196,61.3861715 20.689054,60.7408347 C20.9914663,60.6571907 21.2880964,60.52185 21.573162,60.3539811 C21.8125477,60.4533084 22.0600286,60.5445036 22.3265909,60.6176921 C24.8730997,61.3199534 27.6017498,59.9967514 29.7192146,58.7054969 C35.7067484,55.0536222 38.996278,48.4469064 41.5329569,42.110872 C45.4348282,32.3646011 46.8023335,18.1114279 37.0916004,11.1550336" id="Fill-1" fill="#EE886B"></path>
                        <g id="Group-5" transform="translate(56.087955, 19.737665)">
                            <mask id="mask-2" fill="white">
                                <use xlink:href="#path-1"></use>
                            </mask>
                            <g id="Clip-4"></g>
                            <path d="M0.358673796,0.121806603 C0.867512972,0.121806603 1.28383593,0.534218087 1.28383593,1.05176546 C1.28383593,1.56234249 0.867512972,1.98056259 0.358673796,1.98056259" id="Fill-3" fill="#493B80" mask="url(#mask-2)"></path>
                        </g>
                        <path d="M52.5549339,10.8620472 L49.0508823,13.6327553 C48.8831966,13.7663534 48.6808174,13.8302482 48.4784382,13.8302482 C48.2066718,13.8302482 47.9349054,13.7082673 47.749873,13.4759228 C47.4318485,13.0693199 47.5012357,12.4884587 47.9059941,12.168985 L51.4100457,9.39827687" id="Fill-6" fill="#493B80"></path>
                        <path d="M21.1398392,32.5283459 C20.6656936,30.9019344 20.1048141,29.8209517 19.4519965,29.5194847 C19.0183268,29.3161832 18.6245546,29.2348627 18.2724148,29.2348627 C17.5201423,29.2348627 16.9766096,29.6356569 16.72219,30.1642406 C16.3983832,30.8490761 16.5140285,31.9010158 17.930683,32.6154751 C18.6245546,32.9639919 19.8041364,32.8704732 21.1398392,32.5283459 Z M28.2520231,29.0664129 C30.6227511,27.073478 31.3802276,25.3599373 30.5013236,23.9722598 C30.1376192,23.3913985 29.3622177,23.0364923 28.4659669,23.0364923 L28.4544024,23.0364923 C27.5697161,23.0364923 26.8012533,23.3972071 26.4421747,23.9780684 C26.0721099,24.5705469 25.9969404,25.2611909 26.2114624,26.0401258 C26.4884328,27.0333985 27.216998,28.0963746 28.2520231,29.0664129 Z M25.1353832,58.788502 L31.1610798,58.788502 C31.0101628,54.124767 30.8251303,41.6705211 32.7217127,33.9160234 C31.9526717,33.591322 31.1951952,33.2189899 30.46663,32.8478196 C29.6339841,32.4237909 28.8591608,31.9358674 28.1537247,31.4072837 C26.9394494,32.1734397 25.1642945,33.1092072 23.3139702,33.7888148 C25.1122541,41.4561833 25.1816413,54.1299948 25.1353832,58.788502 Z M31.5999536,76.5454302 L32.1145751,75.4017144 L24.1350516,75.4017144 L24.7658966,76.5454302 L31.5999536,76.5454302 Z M22.8109133,73.5423776 L33.3519794,73.5423776 L33.3519794,72.3574207 L22.8109133,72.3574207 L22.8109133,73.5423776 Z M34.9079865,62.8202599 L34.9079865,60.6536474 L21.6602429,60.6536474 L21.5677267,62.8202599 L34.9079865,62.8202599 Z M34.9079865,66.0730828 L34.9079865,64.6790159 L21.486775,64.6790159 L21.4289524,66.0730828 L34.9079865,66.0730828 Z M34.9079865,69.6279537 L34.9079865,67.9370666 L21.353783,67.9370666 L21.2786135,69.6453795 L22.2384692,70.4992455 L33.935988,70.4992455 L34.9079865,69.6279537 Z M38.8798232,32.7606904 C39.9264129,32.2024828 39.9958,31.2266359 39.7066869,30.5005593 C39.3661116,29.6356569 38.4403712,28.9211976 37.1335797,29.2691335 C36.2315466,29.5194847 35.4977774,30.7909899 34.9079865,32.7543009 C36.3703209,33.2189899 37.7638464,33.3589775 38.8798232,32.7606904 Z M46.2001686,34.6421 C46.2290799,34.5207 48.952526,22.4846741 39.3776761,16.0545401 C32.305968,11.3030951 24.9220177,11.3094846 18.0289815,15.9621832 C13.8079293,18.8136311 9.0838201,24.268499 10.5814263,34.0385852 C11.2290398,38.2498292 12.9521543,40.7301067 14.9476134,43.6053699 C17.3640212,47.0789201 20.0874673,50.9997335 21.5445976,58.788502 L23.2850589,58.788502 C23.3602283,50.6686426 22.8571714,40.3235038 21.5856517,34.3290158 C19.8856663,34.7646617 18.2608503,34.8634081 17.0980371,34.2761574 C14.7735672,33.1028177 14.3109862,30.9135517 15.0511159,29.3568435 C15.8149529,27.7652837 17.8387451,26.7249612 20.2262416,27.8285976 C21.3133071,28.3287191 22.163878,29.8563842 22.8282601,31.988145 C24.2044388,31.4827957 25.592182,30.8089966 26.7023766,30.1468148 C25.5690529,29.0077459 24.7658966,27.7594751 24.4241648,26.5390856 C24.0714467,25.2611909 24.2223638,24.0361545 24.8636168,22.995832 C25.5690529,21.8579248 26.910538,21.1777363 28.4486201,21.1725086 L28.4717492,21.1725086 C30.0098312,21.1725086 31.3570986,21.8457268 32.068317,22.978987 C33.0455195,24.524078 33.3982375,27.0217813 29.7265003,30.2513698 C30.2179927,30.5876885 30.7499609,30.9019344 31.3056364,31.1859756 C31.9295426,31.5054493 32.5835166,31.8255038 33.2305519,32.1159344 C34.045851,29.6240397 35.1502633,27.881456 36.6478695,27.4748531 C39.0475088,26.8242885 40.8116774,28.2352005 41.4298013,29.8157239 C42.1410197,31.6105851 41.4471481,33.4983842 39.7471627,34.4045277 C38.128129,35.270011 36.2893692,35.1306043 34.4448272,34.5613603 C33.1149066,40.6313603 32.7512023,50.7435737 33.0171864,58.788502 L35.1739706,58.788502 C35.8788285,56.732834 38.151258,50.2562311 39.9559024,46.7129775 C40.6838894,45.2718608 41.510753,43.9248436 42.3087054,42.6237144 C43.8589302,40.0911593 45.3212646,37.7032388 46.2001686,34.6421 Z M40.4127012,14.5100301 C51.2197514,21.7707957 48.0157993,35.0202407 47.9811057,35.1538387 C47.0328145,38.4583584 45.4374881,41.072234 43.8872633,43.5995613 C43.1066577,44.8716474 42.3029231,46.1838129 41.6032692,47.5610349 C39.6951223,51.3128177 37.1393619,58.7594589 36.764093,59.8752934 L36.764093,70.0455929 C36.764093,70.3133699 36.6478695,70.568368 36.4512726,70.7432073 L35.2023037,71.8584608 L35.2023037,74.4723365 C35.2023037,74.989303 34.7859807,75.4017144 34.2771416,75.4017144 L34.1441495,75.4017144 C34.1383672,75.4249489 34.132585,75.4423747 34.1268027,75.4656092 L33.0403154,77.8587575 C32.8893984,78.1892676 32.5598093,78.4041862 32.201309,78.4041862 L24.2223638,78.4041862 C23.8864143,78.4041862 23.5741721,78.2247001 23.4122687,77.92788 L22.0823481,75.5289231 C22.0592191,75.4888436 22.0424505,75.4481833 22.030886,75.4017144 L21.8863294,75.4017144 C21.3711297,75.4017144 20.960589,74.989303 20.960589,74.4723365 L20.960589,71.8462628 L19.7179806,70.7432073 C19.5092409,70.5573317 19.3993779,70.2895546 19.4109425,70.0055135 L19.83883,59.7881642 C18.4857803,51.9517651 15.8033883,48.0838101 13.4262999,44.6683459 C11.3909432,41.7286072 9.4660277,38.9584799 8.75480931,34.3226263 C7.01376981,23.0196473 13.1718803,17.0019248 16.9997386,14.4170923 C24.5051165,9.34559275 32.7101482,9.33455639 40.4127012,14.5100301 Z" id="Fill-8" fill="#493B80"></path>
                        <path d="M42.0254323,2.66592077 C42.4648843,2.92149972 42.6210054,3.49074374 42.3608036,3.9380069 L40.1346322,7.81816002 C39.9611643,8.12078873 39.6489221,8.28284902 39.3308976,8.28284902 C39.1747765,8.28284902 39.0128731,8.24218873 38.8683165,8.16086815 C38.4230822,7.90528921 38.2727434,7.33662605 38.527163,6.88878203 L40.7591166,3.00862891 C41.0135362,2.56136575 41.580198,2.41092269 42.0254323,2.66592077" id="Fill-10" fill="#493B80"></path>
                        <path d="M29.4950363,0.934954261 L29.4950363,5.41339446 C29.4950363,5.93036097 29.0850738,6.34335332 28.5698742,6.34335332 C28.0616132,6.34335332 27.644712,5.93036097 27.644712,5.41339446 L27.644712,0.934954261 C27.644712,0.417987752 28.0616132,0.000348516747 28.5698742,0.000348516747 C29.0850738,0.000348516747 29.4950363,0.417987752 29.4950363,0.934954261" id="Fill-12" fill="#493B80"></path>
                        <path d="M19.8910438,6.65649561 C20.1448852,7.10433963 19.9951245,7.67300279 19.5498903,7.92858174 C19.4053337,8.01048318 19.2434303,8.0505626 19.086731,8.0505626 C18.7692847,8.0505626 18.4570425,7.88792145 18.2835746,7.58587361 L16.0510427,3.70572049 C15.7972013,3.25845733 15.9475402,2.68921331 16.3927745,2.43363436 C16.8380087,2.17863627 17.4046705,2.32907934 17.6590901,2.77634249 L19.8910438,6.65649561 Z" id="Fill-14" fill="#493B80"></path>
                        <path d="M10.9748515,12.168985 C11.3796099,12.4884587 11.4489971,13.0693199 11.1309726,13.4759228 C10.9517225,13.7082673 10.6799561,13.8302482 10.4018292,13.8302482 C10.2058105,13.8302482 10.0034313,13.7663534 9.82996336,13.6327553 L6.32591176,10.8620472 C5.92693559,10.5425735 5.85754843,9.9553228 6.16979065,9.5551094 C6.48781514,9.14850653 7.07182374,9.07880318 7.47079991,9.39827687 L10.9748515,12.168985 Z" id="Fill-16" fill="#493B80"></path>
                        <path d="M5.38906945,19.8594717 C5.89790863,19.8594717 6.31423159,20.2718832 6.31423159,20.7894306 C6.31423159,21.3000076 5.89790863,21.7182277 5.38906945,21.7182277 L0.925162138,21.7182277 C0.416322962,21.7182277 0,21.3000076 0,20.7894306 C0,20.2718832 0.416322962,19.8594717 0.925162138,19.8594717 L5.38906945,19.8594717 Z" id="Fill-18" fill="#493B80"></path>
                    </g>
                    <g id="Group" transform="translate(0.321589, 54.053932)">
                        <path d="M24.4331752,7.90318773 C17.9039208,3.24002584 7.74807152,6.71632701 4.50995793,13.6937518 C2.7929162,17.3940326 2.76179158,21.5249544 3.68342626,25.4422875 C4.23617652,27.7940727 5.12438105,30.0511863 6.2540896,32.1824556 C7.44201272,34.4222511 9.36655193,36.2654643 10.3487067,38.6033951 C10.9124082,39.9438088 12.0893801,40.8922583 13.6283198,40.4685444 C13.8277479,40.4137041 14.0231414,40.3253823 14.2110419,40.2139697 C14.3683942,40.2792009 14.5315103,40.3392367 14.7067304,40.3877271 C16.3845781,40.8489633 18.1823133,39.9801767 19.5771575,39.1315943 C23.5207626,36.7336277 25.6879586,32.3943125 27.3588898,28.2333728 C29.9289767,21.8326376 30.8298617,12.4716778 24.4331752,7.90318773" id="Fill-1" fill="#EBB3D1"></path>
                        <path d="M37.1828007,13.6200349 C37.518255,13.6200349 37.7920364,13.890773 37.7920364,14.230206 C37.7920364,14.5661753 37.518255,14.840377 37.1828007,14.840377" id="Fill-3" fill="#493B80"></path>
                        <path d="M34.6194575,7.71066922 L32.3110479,9.53021444 C32.2009589,9.617959 32.0672383,9.66009949 31.9340941,9.66009949 C31.7548393,9.66009949 31.576161,9.57985939 31.453968,9.42746093 C31.2447414,9.16076363 31.2902755,8.77919022 31.5571403,8.56906508 L33.8649735,6.74951986" id="Fill-5" fill="#493B80"></path>
                        <path d="M13.9254447,21.9399515 C13.6130457,20.8714305 13.2435849,20.1619695 12.8130276,19.963967 C12.5277185,19.8306184 12.2683467,19.7769325 12.0360648,19.7769325 C11.5409527,19.7769325 11.1830195,20.0401662 11.0152924,20.3876809 C10.8020311,20.8373718 10.8781135,21.527783 11.8112758,21.997101 C12.2683467,22.2262759 13.0458859,22.1650856 13.9254447,21.9399515 Z M18.6102769,19.6666746 C20.1716955,18.3580105 20.6708422,17.2323401 20.0921548,16.3208357 C19.8523799,15.9392623 19.3417055,15.7066237 18.7514904,15.7066237 L18.7434211,15.7066237 C18.160699,15.7066237 17.6546357,15.9433032 17.4183191,16.3242993 C17.1745095,16.7139544 17.1249407,17.1676862 17.2655779,17.6785674 C17.4488673,18.3314563 17.9284171,19.0293719 18.6102769,19.6666746 Z M16.5572045,39.186377 L20.5261704,39.186377 C20.4270327,36.1228216 20.3054161,27.9441044 21.5544357,22.851456 C21.047796,22.6378672 20.5492256,22.3942606 20.0690995,22.1494994 C19.5209603,21.8712568 19.0102859,21.5508737 18.5457221,21.2039363 C17.745704,21.707313 16.5768015,22.321525 15.3571774,22.7677523 C16.5422186,27.8032513 16.5877527,36.1268625 16.5572045,39.186377 Z M20.8160905,50.8483225 L21.1544266,50.0967211 L15.8984,50.0967211 L16.3139713,50.8483225 L20.8160905,50.8483225 Z M15.0263341,48.8758016 L21.9700071,48.8758016 L21.9700071,48.0976458 L15.0263341,48.0976458 L15.0263341,48.8758016 Z M22.9942377,41.8343002 L22.9942377,40.4113373 L14.2683919,40.4113373 L14.2072954,41.8343002 L22.9942377,41.8343002 Z M22.9942377,43.9701876 L22.9942377,43.0546424 L14.1536919,43.0546424 L14.1162271,43.9701876 L22.9942377,43.9701876 Z M22.9942377,46.3046549 L22.9942377,45.1945707 L14.0660819,45.1945707 L14.0170894,46.3167775 L14.648804,46.8767264 L22.3544538,46.8767264 L22.9942377,46.3046549 Z M25.6110116,22.09235 C26.3003644,21.7263628 26.3464749,21.0855966 26.1556925,20.6081968 C25.93148,20.0401662 25.3216679,19.5708483 24.4605533,19.7994459 C23.8668799,19.963967 23.3832955,20.7992722 22.9942377,22.0883091 C23.9579483,22.3942606 24.8761247,22.4854687 25.6110116,22.09235 Z M30.4335991,23.3282784 C30.4520433,23.2486156 32.2463202,15.3441001 25.9389729,11.1213929 C21.2806543,8.0006881 16.4165673,8.00472897 11.8758306,11.0602026 C9.09594062,12.9328564 5.98405467,16.5153746 6.97024413,22.931696 C7.39676674,25.6973817 8.53223911,27.3264288 9.84581349,29.2152461 C11.4383567,31.4960275 13.2320572,34.0712151 14.1917331,39.186377 L15.3387331,39.186377 C15.388302,33.8535855 15.056306,27.0597315 14.2188231,23.1221941 C13.098913,23.4085185 12.0285718,23.4737497 11.2631366,23.0881354 C9.73168988,22.3174841 9.42678384,20.8795123 9.91497932,19.8571726 C10.4175844,18.8117423 11.7507557,18.1288356 13.323702,18.8538828 C14.0395683,19.1817704 14.5998115,20.1850602 15.0378618,21.5849324 C15.9439341,21.2535812 16.8580759,20.8108175 17.5895045,20.3761356 C16.8430899,19.6285749 16.3139713,18.8082787 16.088606,18.0070323 C15.8569005,17.1676862 15.9554618,16.3629762 16.3785261,15.6800695 C16.8430899,14.9319316 17.7266834,14.4857043 18.7399628,14.4822407 L18.7549487,14.4822407 C19.7682281,14.4822407 20.6558563,14.9244271 21.1244548,15.6685241 C21.767697,16.6833593 21.9999789,18.3233745 19.5814804,20.444253 C19.905407,20.6653463 20.2558472,20.8714305 20.6218498,21.0590423 C21.0328101,21.2685902 21.4633674,21.4787153 21.88989,21.6692134 C22.4270779,20.0326618 23.1544719,18.8879415 24.1412377,18.620667 C25.7216769,18.1940667 26.8830865,19.1205801 27.2905885,20.1585059 C27.759187,21.3372849 27.3021161,22.5772542 26.1827825,23.1724163 C25.1158995,23.740447 23.9043448,23.6486615 22.6899081,23.2751698 C21.8138076,27.2617749 21.5740327,33.9032304 21.7492528,39.186377 L23.1700342,39.186377 C23.634598,37.8361497 25.1314619,33.5828473 26.319385,31.2558845 C26.7995111,30.3097441 27.344192,29.424794 27.8698523,28.5698617 C28.8906247,26.9067558 29.8543353,25.338899 30.4335991,23.3282784 Z M26.6208327,10.1065577 C33.7391494,14.8747822 31.6290152,23.5765032 31.6065363,23.6642477 C30.9817383,25.8347712 29.9309941,27.5515629 28.9096453,29.2112052 C28.3955126,30.0465104 27.866394,30.9083698 27.4052885,31.8129471 C26.1481996,34.2767221 24.464588,39.1673272 24.2173201,39.8998788 L24.2173201,46.5800112 C24.2173201,46.7549231 24.1412377,46.9229077 24.0115518,47.0377838 L23.1884784,47.7697583 L23.1884784,49.48655 C23.1884784,49.8259829 22.914697,50.0967211 22.5792427,50.0967211 L22.4916327,50.0967211 C22.487598,50.1123073 22.4841397,50.1232753 22.4801051,50.1388615 L21.7642387,51.710182 C21.665101,51.9278116 21.447805,52.0686647 21.2120648,52.0686647 L15.9554618,52.0686647 C15.7347075,52.0686647 15.5289392,51.9509023 15.4223085,51.7557861 L14.546208,50.181002 C14.5312221,50.1538705 14.5196944,50.1273162 14.5122015,50.0967211 L14.4170985,50.0967211 C14.0776095,50.0967211 13.8072864,49.8259829 13.8072864,49.48655 L13.8072864,47.7616765 L12.9888241,47.0377838 C12.8510688,46.9154033 12.7790211,46.7399141 12.786514,46.5528797 L13.0683648,39.8427294 C12.1772783,34.6969724 10.409515,32.1558436 8.84406173,29.9131617 C7.5033974,27.9827813 6.23535718,26.1626588 5.76675869,23.1187305 C4.62033506,15.6950784 8.67691097,11.7431093 11.1985818,10.0453674 C16.1422095,6.71511475 21.5469427,6.70761028 26.6208327,10.1065577 Z" id="Fill-7" fill="#493B80"></path>
                        <path d="M27.6832199,2.32811734 C27.9725636,2.49610201 28.075736,2.86959368 27.9039741,3.16342252 L26.4376586,5.71205581 C26.3235349,5.91063562 26.1177666,6.01685273 25.90854,6.01685273 C25.8053676,6.01685273 25.6987369,5.99029845 25.6036339,5.93661263 C25.3102555,5.76920524 25.2111178,5.3951363 25.378845,5.10130745 L26.8491952,2.55325143 C27.0169224,2.25942258 27.3898415,2.16013268 27.6832199,2.32811734" id="Fill-9" fill="#493B80"></path>
                        <g id="Group-13" transform="translate(17.867839, 0.115107)">
                            <mask id="mask-4" fill="white">
                                <use xlink:href="#path-3"></use>
                            </mask>
                            <g id="Clip-12"></g>
                            <path d="M1.56136097,1.07619865 L1.56136097,4.01737342 C1.56136097,4.35680635 1.29103785,4.62754452 0.952125284,4.62754452 C0.61667101,4.62754452 0.342889601,4.35680635 0.342889601,4.01737342 L0.342889601,1.07619865 C0.342889601,0.736765724 0.61667101,0.461986687 0.952125284,0.461986687 C1.29103785,0.461986687 1.56136097,0.736765724 1.56136097,1.07619865" id="Fill-11" fill="#493B80" mask="url(#mask-4)"></path>
                        </g>
                        <path d="M13.1028324,4.94890899 C13.2705596,5.24273784 13.1714219,5.61680678 12.8780435,5.78421418 C12.7829405,5.8379 12.6763098,5.86445427 12.5731374,5.86445427 C12.3639108,5.86445427 12.1581425,5.7576599 12.0440188,5.55965736 L10.5736686,3.01102407 C10.4059414,2.71719522 10.5050791,2.34312628 10.7984575,2.17571888 C11.0918359,2.00773422 11.464755,2.10702413 11.6324822,2.4002757 L13.1028324,4.94890899 Z" id="Fill-14" fill="#493B80"></path>
                        <path d="M7.22921252,8.56923826 C7.49550096,8.77878613 7.54161152,9.16035954 7.33238488,9.42763411 C7.21422659,9.58003257 7.03497181,9.66027267 6.85225875,9.66027267 C6.72257282,9.66027267 6.58942859,9.61813218 6.47530498,9.53038762 L4.16689541,7.7108424 C3.90406526,7.50071725 3.85853109,7.11568024 4.06429943,6.85244654 C4.27352606,6.58517198 4.65854918,6.53956789 4.92137934,6.74969304 L7.22921252,8.56923826 Z" id="Fill-16" fill="#493B80"></path>
                        <g id="Group-20" transform="translate(0.000000, 13.392245)">
                            <mask id="mask-6" fill="white">
                                <use xlink:href="#path-5"></use>
                            </mask>
                            <g id="Clip-19"></g>
                            <path d="M3.54970566,0.227789512 C3.88515993,0.227789512 4.15951772,0.498527681 4.15951772,0.837960608 C4.15951772,1.17392993 3.88515993,1.4481317 3.54970566,1.4481317 L0.609581512,1.4481317 C0.274127238,1.4481317 -0.000230552766,1.17392993 -0.000230552766,0.837960608 C-0.000230552766,0.498527681 0.274127238,0.227789512 0.609581512,0.227789512 L3.54970566,0.227789512 Z" id="Fill-18" fill="#493B80" mask="url(#mask-6)"></path>
                        </g>
                    </g>
                </g>
                <g id="Group-4" opacity="0.75">
                    <g id="Group" transform="translate(0.168869, 0.000000)">
                        <path d="M67.2116073,20.358901 C49.2179815,7.34288371 21.230346,17.0452683 12.3070108,36.5213786 C7.57400066,46.8498609 7.48897653,58.3804933 10.028154,69.3137775 C11.5522904,75.8782201 14.0001457,82.1785943 17.1134985,88.1275871 C20.3864028,94.3800457 25.6904392,99.5251206 28.3975656,106.049101 C29.9500433,109.791845 33.1946062,112.438918 37.4353161,111.255934 C37.984299,111.102604 38.5227852,110.854507 39.0402778,110.546782 C39.4748456,110.728862 39.9241089,110.896034 40.4080117,111.030198 C45.0308053,112.317532 49.9842483,109.891935 53.8281789,107.524903 C64.6976221,100.830556 70.6692554,88.7196115 75.2742045,77.1048604 C82.3574495,59.2387157 84.8399443,33.1108498 67.2116073,20.358901" id="Fill-1" fill="#92F3F1"></path>
                        <g id="Group-5" transform="translate(102.690205, 35.662763)">
                            <mask id="mask-8" fill="white">
                                <use xlink:href="#path-7"></use>
                            </mask>
                            <g id="Clip-4"></g>
                            <path d="M0.537900424,0.242800187 C1.30100275,0.242800187 1.9253592,1.06487044 1.9253592,2.09651073 C1.9253592,3.11425686 1.30100275,3.94790557 0.537900424,3.94790557" id="Fill-3" fill="#493B80" mask="url(#mask-8)"></path>
                        </g>
                        <path d="M95.8441916,19.1992781 L89.4530819,23.9429099 C89.1472367,24.1716385 88.7781132,24.2810304 88.4089897,24.2810304 C87.9133096,24.2810304 87.4176295,24.0721913 87.0801451,23.6744025 C86.5000939,22.978272 86.6266505,21.9837999 87.3648975,21.4368403 L93.7560073,16.6932084" id="Fill-6" fill="#493B80"></path>
                        <path d="M38.3773076,59.4567744 C37.5116967,56.5073324 36.4877423,54.5470068 35.2959439,54.0003066 C34.5042266,53.6316264 33.7853473,53.4841543 33.1424728,53.4841543 C31.7691072,53.4841543 30.7768216,54.2109811 30.3123474,55.1695497 C29.7211985,56.4114755 29.9323231,58.3191325 32.5185996,59.6147802 C33.7853473,60.2468035 35.9388183,60.0772106 38.3773076,59.4567744 Z M51.3614712,53.1786763 C55.6895257,49.5645565 57.0723919,46.4571086 55.4678448,43.9406025 C54.8038579,42.8872304 53.3882674,42.24362 51.7520517,42.24362 L51.7309392,42.24362 C50.1158359,42.24362 48.7129129,42.8977641 48.057371,43.9511363 C47.3817722,45.0255759 47.2445412,46.2780354 47.6361774,47.6906074 C48.1418208,49.4918738 49.4719059,51.4195448 51.3614712,53.1786763 Z M45.6716629,107.078676 L56.6723107,107.078676 C56.3967931,98.6211511 56.0589938,76.0357987 59.5214374,61.9732805 C58.1174587,61.3844454 56.7345925,60.7092339 55.4045075,60.0361291 C53.8844103,59.2671674 52.4698754,58.3823348 51.1820152,57.4237661 C48.9652068,58.813164 45.724444,60.5101465 42.3464503,61.742592 C45.629438,75.6471044 45.7561127,98.6306315 45.6716629,107.078676 Z M57.4735286,139.280263 L58.4130332,137.206173 L43.845435,137.206173 L44.9971197,139.280263 L57.4735286,139.280263 Z M41.4280582,133.834329 L60.6720665,133.834329 L60.6720665,131.68545 L41.4280582,131.68545 L41.4280582,133.834329 Z M63.5127482,114.390132 L63.5127482,110.461054 L39.3273683,110.461054 L39.1584686,114.390132 L63.5127482,114.390132 Z M63.5127482,120.289016 L63.5127482,117.760923 L39.0106814,117.760923 L38.9051191,120.289016 L63.5127482,120.289016 Z M63.5127482,126.735654 L63.5127482,123.669288 L38.7678881,123.669288 L38.6306571,126.767255 L40.3829914,128.315712 L61.7382458,128.315712 L63.5127482,126.735654 Z M70.7638229,59.8781233 C72.6745007,58.8658326 72.8011754,57.0961674 72.2733639,55.7794522 C71.6516019,54.2109811 69.9615494,52.9153333 67.5758413,53.5463032 C65.9290693,54.0003066 64.5894837,56.3061383 63.5127482,59.8665362 C66.1824189,60.7092339 68.7264704,60.9630966 70.7638229,59.8781233 Z M84.1280108,63.2899957 C84.180792,63.0698409 89.1527766,41.2429165 71.6727144,29.5820867 C58.7624444,20.9655025 45.282138,20.9770896 32.6980555,29.4146005 C24.9920072,34.5856044 16.3675668,44.4778223 19.1016306,62.195542 C20.2839284,69.8324901 23.4296851,74.3303892 27.0726403,79.5445814 C31.484089,85.8437469 36.4560736,92.9540089 39.1162437,107.078676 L42.2936691,107.078676 C42.4309001,92.3535868 41.512508,73.5930287 39.1911929,62.7222281 C36.0876612,63.5122572 33.1213604,63.6913305 30.9985024,62.6263712 C26.7548977,60.4985595 25.9103993,56.5283998 27.2615968,53.7053624 C28.6560748,50.8191227 32.3507555,48.9325332 36.7094231,50.9339403 C38.6939945,51.8408937 40.246816,54.6112625 41.4597269,58.4771383 C43.9721098,57.5607045 46.5056051,56.3387928 48.5324014,55.1379486 C46.4633802,53.0722858 44.9971197,50.808589 44.3732465,48.5954541 C43.7293165,46.2780354 44.0048341,44.0564735 45.17552,42.1698839 C46.4633802,40.1063279 48.9124257,38.8728291 51.720383,38.8633488 L51.7626079,38.8633488 C54.5705652,38.8633488 57.030167,40.0842071 58.3285833,42.1393362 C60.1125863,44.9413061 60.7565164,49.4708064 54.0533099,55.3275555 C54.9505895,55.937458 55.9217628,56.5073324 56.9362165,57.0224313 C58.0752338,57.601786 59.2691435,58.1821941 60.4503857,58.7088802 C61.9388142,54.1899136 63.9550542,51.0297971 66.6891179,50.2924366 C71.0699536,49.1126598 74.2906596,51.6713008 75.4191206,54.5375264 C76.717537,57.7924464 75.4507893,61.2159059 72.3472575,62.8591665 C69.3915129,64.428691 66.0346316,64.1758816 62.6671941,63.1435769 C60.2392611,74.151316 59.5752742,92.4894718 60.0608608,107.078676 L63.9983348,107.078676 C65.2851393,103.350792 69.4337379,91.6056926 72.7283374,85.1801224 C74.0573669,82.5667061 75.5669078,80.1239361 77.0236676,77.7643825 C79.8537931,73.1716799 82.5234638,68.8412669 84.1280108,63.2899957 Z M73.5622796,26.7811701 C93.2918746,39.9483221 87.4426672,63.9757409 87.3793298,64.2180165 C85.648108,70.2106507 82.735644,74.9508254 79.9055186,79.5340477 C78.4804275,81.8409327 77.0131114,84.2205004 75.7358075,86.7180458 C72.2522514,93.5217765 67.5863975,107.026008 66.9012982,109.049535 L66.9012982,127.493029 C66.9012982,127.978633 66.6891179,128.441063 66.3302061,128.758129 L64.0500603,130.780603 L64.0500603,135.520778 C64.0500603,136.458279 63.2900117,137.206173 62.3610634,137.206173 L62.1182701,137.206173 C62.1077139,137.248308 62.0971576,137.279909 62.0866014,137.322044 L60.1030857,141.661937 C59.8275681,142.261306 59.2258629,142.651054 58.5713766,142.651054 L44.0048341,142.651054 C43.3915171,142.651054 42.8214806,142.325562 42.5259062,141.787289 L40.0979731,137.436862 C40.0557482,137.364179 40.0251352,137.290443 40.0040227,137.206173 L39.7401169,137.206173 C38.7995568,137.206173 38.0500644,136.458279 38.0500644,135.520778 L38.0500644,130.758482 L35.7815305,128.758129 C35.4004505,128.421049 35.1998822,127.935445 35.2209946,127.420346 L36.0021557,108.89153 C33.5319977,94.6804859 28.6349624,87.6660807 24.295296,81.4722524 C20.5795028,76.141136 17.0653337,71.1176042 15.7669173,62.710641 C12.5884363,42.2130722 23.8308219,31.3001367 30.8190465,26.6126306 C44.5210338,17.4156383 59.5003249,17.3956242 73.5622796,26.7811701 Z" id="Fill-8" fill="#493B80"></path>
                        <path d="M76.7280575,4.76557608 C77.5466426,5.20472455 77.8374557,6.18282797 77.3527672,6.95133779 L73.2059876,13.6184101 C72.8828619,14.1384018 72.3012357,14.4168618 71.7088386,14.4168618 C71.4180255,14.4168618 71.1164415,14.3469973 70.8471701,14.2072682 C70.0178142,13.7681198 69.7377719,12.7910144 70.2116896,12.0215065 L74.36924,5.35443426 C74.8431577,4.58592443 75.8987016,4.32742567 76.7280575,4.76557608" id="Fill-10" fill="#493B80"></path>
                        <path d="M53.2467731,1.78883599 L53.2467731,10.3605734 C53.2467731,11.3500476 52.572631,12.1405152 51.7254368,12.1405152 C50.8896526,12.1405152 50.2041004,11.3500476 50.2041004,10.3605734 L50.2041004,1.78883599 C50.2041004,0.799361762 50.8896526,0 51.7254368,0 C52.572631,0 53.2467731,0.799361762 53.2467731,1.78883599" id="Fill-12" fill="#493B80"></path>
                        <path d="M36.2824997,12.0215065 C36.755002,12.7910144 36.4762364,13.7681198 35.6474739,14.2072682 C35.3783951,14.3479954 35.0770269,14.4168618 34.7853455,14.4168618 C34.1944486,14.4168618 33.6132385,14.1374037 33.290344,13.6184101 L29.1346919,6.95133779 C28.6621896,6.18282797 28.9420315,5.20472455 29.770794,4.76557608 C30.5995566,4.32742567 31.6543453,4.58592443 32.1279239,5.35443426 L36.2824997,12.0215065 Z" id="Fill-14" fill="#493B80"></path>
                        <path d="M19.9318838,22.0465909 C20.6216897,22.6222105 20.7399422,23.6687915 20.1979518,24.4013982 C19.8924663,24.8200306 19.4293109,25.0398126 18.9553157,25.0398126 C18.6212526,25.0398126 18.2763496,24.9246887 17.9807185,24.6839751 L12.00897,19.6917836 C11.3290185,19.116164 11.210766,18.0580706 11.742902,17.3369763 C12.2848924,16.6043696 13.2801838,16.4787798 13.9601354,17.0543994 L19.9318838,22.0465909 Z" id="Fill-16" fill="#493B80"></path>
                        <path d="M10.3874396,36.4215457 C11.3682279,36.4215457 12.170691,37.0949649 12.170691,37.9400585 C12.170691,38.7737705 11.3682279,39.4566745 10.3874396,39.4566745 L1.78325143,39.4566745 C0.802463143,39.4566745 0,38.7737705 0,37.9400585 C0,37.0949649 0.802463143,36.4215457 1.78325143,36.4215457 L10.3874396,36.4215457 Z" id="Fill-18" fill="#493B80"></path>
                    </g>
                </g>
            </g>
        </g>
    </g>
</svg>