<?xml version="1.0" encoding="UTF-8"?>
<svg width="95px" height="90px" viewBox="0 0 95 90" version="1.1" xmlns="http://www.w3.org/2000/svg" xmlns:xlink="http://www.w3.org/1999/xlink">
    <!-- Generator: Sketch 50.2 (55047) - http://www.bohemiancoding.com/sketch -->
    <title>Group</title>
    <desc>Created with Sketch.</desc>
    <defs></defs>
    <g id="Page-1" stroke="none" stroke-width="1" fill="none" fill-rule="evenodd">
        <g id="FAQ" transform="translate(-1024.000000, -130.000000)">
            <g id="Group" transform="translate(1024.000000, 130.000000)">
                <path d="M27.3499,44.8368 L27.3799,34.1768 C25.7899,34.5468 23.5899,35.6468 23.5799,38.9968 C23.5699,42.4668 25.7199,44.0968 27.3499,44.8368 Z M64.7699,50.4068 L64.8099,31.4168 L31.5899,6.2368 L31.4309,73.3568 L64.7699,50.4068 Z M73.1899,85.6268 L73.5699,83.2358 L70.7999,83.2268 L70.4199,85.6268 L73.1899,85.6268 Z M74.9799,49.4468 L75.0199,32.4768 L68.9499,32.4668 L68.9099,49.4268 L73.6699,49.4368 C73.6809,49.4368 73.6809,49.4468 73.6899,49.4368 L74.9799,49.4468 Z M74.2299,79.0868 L78.2899,53.5468 C77.8599,53.5768 77.4599,53.5868 77.0699,53.5968 L77.0399,53.5968 L75.5399,53.5868 L71.4599,79.0868 L74.2299,79.0868 Z M90.6399,41.1268 C90.6599,35.0268 82.9999,33.2168 79.1599,32.6868 L79.1199,49.2868 C82.9399,48.8468 90.6299,47.1968 90.6399,41.1268 Z M77.1699,28.3368 C77.8899,28.3668 94.8199,29.0768 94.7899,41.1368 C94.7699,48.3368 88.3799,51.6668 82.5799,52.9468 L77.0099,88.0368 C76.8499,89.0368 75.9799,89.7758 74.9599,89.7758 L74.9499,89.7758 L67.9799,89.7568 C67.3799,89.7568 66.7999,89.4968 66.4099,89.0368 C66.0199,88.5768 65.8499,87.9568 65.9399,87.3668 L71.3399,53.5768 L67.4799,53.5668 L30.5199,79.0168 C30.1699,79.2568 29.7599,79.3768 29.3399,79.3768 C29.0099,79.3768 28.6809,79.2968 28.3799,79.1368 C27.6999,78.7758 27.2699,78.0768 27.2699,77.3068 L27.3399,49.2368 C24.0999,48.3068 19.4199,45.3568 19.4309,38.9868 C19.4399,35.2968 21.1599,32.4368 24.2809,30.9268 C25.4199,30.3768 26.5399,30.1168 27.3899,29.9768 L27.4599,2.0668 C27.4599,1.2768 27.9099,0.5668 28.6099,0.2168 C29.3199,-0.1332 30.1599,-0.0532 30.7899,0.4168 L67.5899,28.3168 L77.0999,28.3368 C77.1099,28.3368 77.1199,28.3368 77.1299,28.3468 C77.1399,28.3468 77.1499,28.3368 77.1699,28.3368 Z" id="Fill-1" fill="#493B80"></path>
                <path d="M79.1599,32.6864 C82.9999,33.2164 90.6599,35.0264 90.6399,41.1264 C90.6299,47.1964 82.9399,48.8464 79.1199,49.2864 L79.1599,32.6864 Z" id="Fill-3" fill="#8A8BC3"></path>
                <path d="M75.0198,32.4764 L74.9798,49.4464 L73.6898,49.4364 C73.6808,49.4464 73.6808,49.4364 73.6698,49.4364 L68.9098,49.4264 L68.9498,32.4664 L75.0198,32.4764 Z" id="Fill-5" fill="#D8E1E7"></path>
                <polygon id="Fill-7" fill="#8A8BC3" points="64.8098 31.4169 64.7698 50.4069 31.4308 73.3559 31.5898 6.2369"></polygon>
                <path d="M27.3797,34.1766 L27.3497,44.8366 C25.7197,44.0966 23.5697,42.4666 23.5807,38.9966 C23.5897,35.6466 25.7897,34.5466 27.3797,34.1766" id="Fill-9" fill="#EBB3D1"></path>
                <path d="M14.9798,27.2167 C15.8598,27.9467 15.9698,29.2567 15.2298,30.1367 C14.8198,30.6167 14.2398,30.8667 13.6498,30.8667 C13.1808,30.8667 12.6998,30.7067 12.3098,30.3767 L4.2598,23.5867 C3.3898,22.8467 3.2698,21.5367 4.0098,20.6667 C4.7498,19.7867 6.0598,19.6767 6.9308,20.4167 L14.9798,27.2167 Z" id="Fill-11" fill="#493B80"></path>
                <path d="M15.1897,49.1766 C15.9197,50.0566 15.7997,51.3566 14.9197,52.0966 L6.8307,58.8466 C6.4497,59.1666 5.9797,59.3266 5.5097,59.3266 C4.9097,59.3266 4.3307,59.0766 3.9197,58.5766 C3.1807,57.7066 3.2997,56.3966 4.1807,55.6666 L12.2697,48.9166 C13.1497,48.1766 14.4497,48.2966 15.1897,49.1766" id="Fill-13" fill="#493B80"></path>
                <path d="M12.6101,37.6967 C13.7601,37.6967 14.6801,38.6267 14.6801,39.7667 C14.6801,40.9167 13.7501,41.8367 12.6101,41.8367 L12.6001,41.8367 L2.0701,41.8067 C0.9201,41.8067 0.0001,40.8767 0.0001,39.7367 C0.0001,38.5867 0.9301,37.6667 2.0701,37.6667 L2.0801,37.6667 L12.6101,37.6967 Z" id="Fill-15" fill="#493B80"></path>
            </g>
        </g>
    </g>
</svg>