<?xml version="1.0" encoding="UTF-8"?>
<svg width="108px" height="108px" viewBox="0 0 108 108" version="1.1" xmlns="http://www.w3.org/2000/svg" xmlns:xlink="http://www.w3.org/1999/xlink">
    <!-- Generator: Sketch 50.2 (55047) - http://www.bohemiancoding.com/sketch -->
    <title>onBoardingTeam</title>
    <desc>Created with Sketch.</desc>
    <defs>
        <filter x="-7.0%" y="-5.0%" width="114.0%" height="114.0%" filterUnits="objectBoundingBox" id="filter-1">
            <feOffset dx="0" dy="2" in="SourceAlpha" result="shadowOffsetOuter1"></feOffset>
            <feGaussianBlur stdDeviation="2" in="shadowOffsetOuter1" result="shadowBlurOuter1"></feGaussianBlur>
            <feColorMatrix values="0 0 0 0 0   0 0 0 0 0.635294118   0 0 0 0 0.666666667  0 0 0 1 0" type="matrix" in="shadowBlurOuter1" result="shadowMatrixOuter1"></feColorMatrix>
            <feMerge>
                <feMergeNode in="shadowMatrixOuter1"></feMergeNode>
                <feMergeNode in="SourceGraphic"></feMergeNode>
            </feMerge>
        </filter>
    </defs>
    <g id="Page-1" stroke="none" stroke-width="1" fill="none" fill-rule="evenodd">
        <g id="Careeer-V3" transform="translate(-594.000000, -698.000000)" fill="#FFFFFF">
            <g id="onBoardingTeam" filter="url(#filter-1)" transform="translate(598.000000, 700.000000)">
                <path d="M49.9995007,0 C32.1362211,0.000178366613 15.6299652,9.53028953 6.69847994,25.0004328 C-2.23300528,40.4705761 -2.23281468,59.5304686 6.69897994,75.0004332 C15.6307746,90.4703979 32.1372211,100.000179 50.0005007,100 C77.6147382,99.9997239 100.000277,77.6137375 100.000001,49.9995 C99.9997246,22.3852625 77.6137382,-0.000276142375 49.9995007,0 Z M49.6165007,28.977 L50.4765007,28.977 C55.0935007,28.977 58.7105007,32.645 58.7105007,37.325 L58.7105007,48.884 C58.7105007,49.169 58.4765007,49.404 58.1905007,49.404 L52.7605007,49.404 L52.7605007,50.645 L54.2065007,52.087 L57.4445007,52.087 C58.4645007,52.087 59.4245007,52.329 60.2845007,52.751 C61.2761392,52.3161254 62.3467019,52.0900988 63.4295007,52.087 L64.8395007,52.087 C64.8475007,52.087 64.8515007,52.091 64.8595007,52.091 L66.4605007,50.497 C66.5079092,50.4451016 66.5668163,50.4050311 66.6325007,50.38 L66.6325007,48.696 C64.3966512,47.6150235 62.9751212,45.3514505 62.9725007,42.868 L62.9725007,42.645 L62.7495007,42.645 C62.0495007,42.645 61.4835007,42.075 61.4835007,41.38 L61.4835007,39.14 C61.4835007,38.441 62.0505007,37.875 62.7495007,37.875 L62.9725007,37.875 L62.9725007,37.305 C62.5198496,37.1016408 62.2280659,36.6522314 62.2265007,36.156 L62.2265007,33.176 C62.2287023,31.6541018 63.4616034,30.4207535 64.9835007,30.418 C65.2735007,30.418 65.5075007,30.652 65.5075007,30.938 C65.5075007,31.473 65.9405007,31.91 66.4765007,31.91 L74.6795007,31.91 C75.7885007,31.91 76.6905007,32.812 76.6905007,33.922 L76.6905007,36.16 C76.6905007,36.672 76.3825007,37.105 75.9445007,37.308 L75.9445007,37.875 L76.1555007,37.875 C76.8555007,37.875 77.4215007,38.445 77.4215007,39.14 L77.4215007,41.379 C77.4215007,42.074 76.8545007,42.644 76.1555007,42.644 L75.9455007,42.644 L75.9455007,42.867 C75.9421187,45.4066448 74.4581592,47.7111191 72.1475007,48.765 L72.1475007,50.297 C72.2535007,50.312 72.3585007,50.355 72.4375007,50.433 L74.0895007,52.09 L75.3545007,52.09 C79.7535007,52.09 83.3315007,55.664 83.3315007,60.066 L83.3315007,70.5 C83.332567,70.6386043 83.2782525,70.7718983 83.1806177,70.870284 C83.082983,70.9686698 82.9501092,71.0240041 82.8115007,71.024 L17.1825007,71.024 C17.0438923,71.0240041 16.9110185,70.9686698 16.8133838,70.870284 C16.715749,70.7718983 16.6614345,70.6386043 16.6625007,70.5 L16.6625007,60.063 C16.6625007,55.665 20.2415007,52.087 24.6395007,52.087 L26.0545007,52.087 C26.0615007,52.087 26.0655007,52.09 26.0745007,52.09 L27.6715007,50.493 C27.7250661,50.4414798 27.7887426,50.4016394 27.8585007,50.376 L27.8585007,49.008 C25.6195093,48.1684515 24.135191,46.0292167 24.1325007,43.638 L24.1325007,42.668 L23.9055007,42.668 C23.2055007,42.668 22.6405007,42.098 22.6405007,41.399 L22.6405007,39.165 C22.6405007,38.465 23.2065007,37.899 23.9055007,37.899 L24.1285007,37.899 L24.1285007,34.77 C24.1205007,34.762 24.1125007,34.75 24.1045007,34.743 C24.01207,34.6625689 23.9261361,34.5749632 23.8475007,34.481 C23.8315007,34.461 23.8155007,34.446 23.8005007,34.422 C23.7288375,34.3265142 23.6659169,34.2247702 23.6125007,34.118 C23.5999911,34.0974795 23.5883149,34.0764624 23.5775007,34.055 C23.5275007,33.945 23.4875007,33.833 23.4565007,33.712 L23.4325007,33.645 C23.4000615,33.5029274 23.3832947,33.3577268 23.3825007,33.212 L23.3825007,31.719 C23.3825007,30.868 23.7065007,30.039 24.2885007,29.387 C24.4230257,29.2408206 24.628002,29.1821456 24.8195007,29.235 C25.0107852,29.2928752 25.1538651,29.4525385 25.1905007,29.649 C25.2725007,30.118 25.6705007,30.454 26.1435007,30.454 L33.6005007,30.454 C34.5265007,30.454 35.3115007,31.09 35.5425007,31.946 L35.8355007,31.946 C36.5345007,31.946 37.1005007,32.516 37.1005007,33.216 L37.1005007,37.899 L37.3115007,37.899 C38.0115007,37.899 38.5775007,38.465 38.5775007,39.165 L38.5775007,41.399 C38.5775007,42.099 38.0105007,42.669 37.3115007,42.669 L37.1015007,42.669 L37.1015007,43.637 C37.1015007,46.098 35.5415007,48.196 33.3665007,49.012 L33.3665007,50.293 C33.4915007,50.301 33.6165007,50.344 33.7065007,50.434 L35.3625007,52.09 L36.5695007,52.09 C37.6477562,52.0926192 38.7140319,52.3162206 39.7025007,52.747 C40.5826192,52.3148922 41.5500286,52.090144 42.5305007,52.09 L45.8155007,52.09 L47.2335007,50.672 L47.2335007,49.402 L41.7835007,49.402 C41.4970932,49.4014497 41.265051,49.1694076 41.2645007,48.883 L41.2645007,38.923 C41.135684,38.9916777 40.9838048,39.0025781 40.8465007,38.953 C40.6413355,38.8781079 40.5044848,38.6834048 40.5035007,38.465 C40.5035007,37.008 40.9635007,35.641 41.7645007,34.505 C41.7685007,34.489 41.7645007,34.473 41.7725007,34.454 C42.9850346,31.1680094 46.1139398,28.9832804 49.6165007,28.977 Z M49.6165007,30.017 C47.5855007,30.017 45.6985007,30.883 44.3435007,32.293 C45.2832345,31.830195 46.3159948,31.5873938 47.3635007,31.583 C47.6515007,31.583 47.8825007,31.817 47.8825007,32.106 C47.8825007,32.2439126 47.8277152,32.3761766 47.7301963,32.4736955 C47.6326774,32.5712144 47.5004133,32.626 47.3625007,32.626 C44.6669462,32.6272462 42.3249791,34.4793036 41.7025007,37.102 C42.332484,36.6216892 43.0409773,36.2542471 43.7965007,36.016 C43.8673886,35.981714 43.9447812,35.9629625 44.0235007,35.961 C44.62356,35.7844418 45.2450476,35.6912355 45.8705007,35.684 L49.9725007,35.684 C50.9175007,35.684 51.6875007,34.914 51.6875007,33.969 C51.7081994,33.6962935 51.9355098,33.4855822 52.2090007,33.4855822 C52.4824917,33.4855822 52.7098021,33.6962935 52.7305007,33.969 C52.7305007,34.915 53.5005007,35.684 54.4445007,35.684 C55.4921322,35.6876968 56.3612405,36.4954409 56.4415007,37.54 C56.4596806,37.5914702 56.4697999,37.64544 56.4715007,37.7 L56.4715007,43.672 C56.4679855,44.7676444 55.9559142,45.7995457 55.0855007,46.465 L53.4805007,47.68 C53.2505007,47.856 53.0075007,48 52.7605007,48.133 L52.7605007,48.363 L57.6715007,48.363 L57.6715007,37.326 C57.6715007,33.228 54.5075007,30.017 50.4765007,30.017 L49.6165007,30.017 Z M24.6165007,30.793 C24.4965007,31.09 24.4295007,31.403 24.4295007,31.723 L24.4295007,33.215 C24.4295007,33.333 24.4565007,33.442 24.4955007,33.547 C24.5075007,33.575 24.5195007,33.598 24.5305007,33.625 C24.5735007,33.711 24.6245007,33.793 24.6875007,33.864 C24.7145007,33.891 24.7455007,33.914 24.7775007,33.942 C24.9484631,34.0944015 25.1685018,34.1802876 25.3975007,34.184 L26.1445007,34.184 C26.3402567,34.169142 26.5278462,34.2651626 26.6302672,34.4326473 C26.7326882,34.6001319 26.7326882,34.8108681 26.6302672,34.9783527 C26.5278462,35.1458374 26.3402567,35.241858 26.1445007,35.227 L25.3975007,35.227 C25.3195007,35.227 25.2495007,35.211 25.1755007,35.2 L25.1755007,37.926 L25.3435007,37.762 C25.5227171,37.5781074 25.6234728,37.331776 25.6245007,37.075 L25.6245007,36.961 C25.6245007,36.262 26.1945007,35.696 26.8905007,35.696 L34.3475007,35.696 C35.0465007,35.696 35.6175007,36.262 35.6175007,36.961 C35.6175007,37.317 35.7255007,37.571 35.9175007,37.754 L36.0615007,37.895 L36.0615007,33.215 C36.0623017,33.1555116 36.0392985,33.0981695 35.9976073,33.0557272 C35.9559162,33.0132848 35.8989939,32.9892614 35.8395007,32.989 L35.0935007,32.989 C34.9548923,32.9890041 34.8220185,32.9336698 34.7243838,32.835284 C34.626749,32.7368983 34.5724345,32.6036043 34.5735007,32.465 C34.5702041,31.9298091 34.1357016,31.4975393 33.6005007,31.497 L26.1435007,31.497 C25.5385007,31.497 24.9875007,31.227 24.6165007,30.793 Z M64.5505007,31.52 C63.7972065,31.7199285 63.2719183,32.4006299 63.2695007,33.18 L63.2695007,36.16 C63.2695007,36.286 63.3715007,36.387 63.4965007,36.387 L75.4265007,36.387 C75.5510896,36.3864523 75.6519531,36.2855888 75.6525007,36.161 L75.6525007,33.922 C75.6502967,33.3863515 75.2151534,32.9534444 74.6795007,32.954 L66.4765007,32.954 C65.5665007,32.954 64.8015007,32.348 64.5515007,31.52 L64.5505007,31.52 Z M52.2105007,35.57 C51.6944159,36.2936414 50.8613165,36.7243367 49.9725007,36.727 L45.8695007,36.727 C45.4236063,36.727398 44.9792768,36.779751 44.5455007,36.883 L44.5415007,36.883 L44.5415007,43.657 C44.5415007,44.43 44.9165007,45.168 45.5375007,45.629 L47.2095007,46.872 C48.8882014,48.1098223 51.179621,48.1016967 52.8495007,46.852 L54.4555007,45.633 C55.0655007,45.173 55.4325007,44.438 55.4325007,43.673 L55.4325007,37.778 C55.4285007,37.75 55.4125007,37.727 55.4125007,37.7 C55.4125007,37.16 54.9825007,36.727 54.4475007,36.727 C53.5265007,36.727 52.7095007,36.267 52.2095007,35.571 L52.2105007,35.57 Z M26.8905007,36.739 C26.8310076,36.7392614 26.7740853,36.7632848 26.7323942,36.8057272 C26.690703,36.8481695 26.6676998,36.9055116 26.6685007,36.965 L26.6685007,37.079 C26.6685007,37.614 26.4575007,38.122 26.0785007,38.501 L25.1755007,39.399 L25.1755007,43.641 C25.1782516,46.234037 27.278467,48.3360413 29.8715007,48.341 L31.3635007,48.341 C33.9535007,48.341 36.0625007,46.231 36.0625007,43.641 L36.0625007,39.333 L35.1995007,38.516 C34.8006672,38.1350094 34.5748769,37.6075632 34.5745007,37.056 C34.5745007,36.84 34.4685007,36.739 34.3475007,36.739 L26.8905007,36.739 Z M52.5975007,37.196 C53.2145007,37.196 53.8355007,37.426 54.2855007,37.876 C54.4340729,38.024562 54.4784177,38.2480443 54.3978256,38.4420785 C54.3172335,38.6361127 54.1276059,38.7624146 53.9175007,38.762 C53.7784807,38.7645402 53.6445871,38.7095353 53.5475007,38.61 C53.0395007,38.106 52.1565007,38.102 51.6485007,38.61 C51.551698,38.7083305 51.419485,38.7637023 51.2815007,38.7637023 C51.1435165,38.7637023 51.0113035,38.7083305 50.9145007,38.61 C50.8171623,38.5126677 50.7624776,38.380653 50.7624776,38.243 C50.7624776,38.105347 50.8171623,37.9733323 50.9145007,37.876 C51.3627206,37.4344971 51.9683845,37.1897844 52.5975007,37.196 Z M47.3785007,37.2 C47.9965007,37.2 48.6175007,37.426 49.0665007,37.876 C49.1638392,37.9733323 49.2185239,38.105347 49.2185239,38.243 C49.2185239,38.380653 49.1638392,38.5126677 49.0665007,38.61 C48.8624448,38.8131575 48.5325567,38.8131575 48.3285007,38.61 C47.8205007,38.102 46.9375007,38.102 46.4295007,38.61 C46.2245558,38.810993 45.8964457,38.810993 45.6915007,38.61 C45.5941623,38.5126677 45.5394776,38.380653 45.5394776,38.243 C45.5394776,38.105347 45.5941623,37.9733323 45.6915007,37.876 C46.1431184,37.4376816 46.7491719,37.194829 47.3785007,37.2 Z M43.5035007,37.235 C43.0780858,37.4264709 42.6769383,37.6678308 42.3085007,37.954 L42.3085007,48.36 L47.2345007,48.36 L47.2345007,48.11 C47.0114133,47.9905413 46.7959949,47.8572825 46.5895007,47.711 L44.9145007,46.465 C44.0287397,45.8026473 43.5063885,44.7620199 43.5045007,43.656 L43.5045007,37.235 L43.5035007,37.235 Z M64.0155007,37.426 L64.0155007,37.876 L67.5975007,37.876 C68.1823533,37.8787081 68.7215041,38.1926729 69.0125007,38.7 C69.1525007,38.645 69.3045007,38.61 69.4655007,38.61 C69.6215007,38.61 69.7695007,38.645 69.9105007,38.7 C70.1993369,38.1910174 70.7392748,37.8763718 71.3245007,37.876 L72.8165007,37.876 C72.8675007,37.876 72.9185007,37.887 72.9695007,37.891 C72.9965007,37.887 73.0195007,37.876 73.0515007,37.876 L74.9025007,37.876 L74.9025007,37.426 L64.0155007,37.426 Z M27.9535007,37.887 L28.0325007,37.887 C28.7457973,37.9234194 29.40635,38.2738345 29.8365007,38.844 C30.0082254,39.0747988 29.9613123,39.4009564 29.7315007,39.574 C29.5001323,39.7434608 29.175729,39.6968001 29.0015007,39.469 C28.7551923,39.135372 28.3681064,38.9348112 27.9535007,38.926 C27.5355007,38.934 27.1535007,39.133 26.9035007,39.466 C26.8212491,39.576645 26.6982826,39.6499358 26.5618303,39.6696435 C26.4253779,39.6893512 26.2866987,39.6538496 26.1765007,39.571 C26.0653026,39.4893329 25.9911973,39.3667518 25.9705571,39.2303388 C25.9499169,39.0939258 25.9844406,38.9549083 26.0665007,38.844 C26.4976067,38.2718353 27.1609168,37.9211238 27.8765007,37.887 L27.9535007,37.887 Z M33.1735007,37.887 L33.2505007,37.887 C33.9615007,37.922 34.6305007,38.274 35.0555007,38.844 C35.2272254,39.0747988 35.1803123,39.4009564 34.9505007,39.574 C34.7188563,39.742351 34.3953066,39.695813 34.2205007,39.469 C33.9748967,39.1350758 33.5869833,38.9355668 33.1725007,38.93 C32.7574051,38.936263 32.3690421,39.1359926 32.1225007,39.47 C32.0396672,39.5800985 31.9163136,39.6525792 31.7798197,39.6713541 C31.6433259,39.6901291 31.504984,39.653645 31.3955007,39.57 C31.2849908,39.487915 31.2116998,39.3652177 31.1918114,39.2290015 C31.1719231,39.0927853 31.2070735,38.9542549 31.2895007,38.844 C31.7146622,38.2674963 32.3787412,37.9154057 33.0945007,37.887 L33.1725007,37.887 L33.1735007,37.887 Z M47.3795007,38.813 C47.7921514,38.8152008 48.1255066,39.1503435 48.1255007,39.563 C48.1255007,39.973 47.7895007,40.305 47.3795007,40.305 C47.1820988,40.3057972 46.9924941,40.2280065 46.852534,40.0887968 C46.7125738,39.9495871 46.6337648,39.7604034 46.6335007,39.563 C46.6334949,39.1503435 46.9668501,38.8152008 47.3795007,38.813 Z M52.5985007,38.813 C53.0111514,38.8152008 53.3445066,39.1503435 53.3445007,39.563 C53.3445007,39.973 53.0085007,40.305 52.5985007,40.305 C52.4010988,40.3057972 52.2114941,40.2280065 52.071534,40.0887968 C51.9315738,39.9495871 51.8527648,39.7604034 51.8525007,39.563 C51.8524949,39.1503435 52.1858501,38.8152008 52.5985007,38.813 Z M62.7505007,38.915 C62.62619,38.916603 62.5256525,39.0166976 62.5235007,39.141 L62.5235007,41.379 C62.5251168,41.5036931 62.6258077,41.6043839 62.7505007,41.606 L62.9735007,41.606 L62.9735007,38.915 L62.7505007,38.915 Z M64.0165007,38.915 L64.0165007,42.868 C64.0203516,45.8742422 66.4552622,48.3109415 69.4615007,48.317 C72.468814,48.3125885 74.9048495,45.874316 74.9065007,42.867 L74.9065007,38.915 L74.3405007,38.915 C74.4155533,39.1066011 74.4551962,39.3102366 74.4575007,39.516 C74.455846,40.4205752 73.7220775,41.1530015 72.8175007,41.153 L71.3245007,41.153 C70.5545007,41.153 69.9065007,40.618 69.7345007,39.895 C69.7345007,39.891 69.7305007,39.887 69.7305007,39.883 C69.6025007,39.547 69.2735007,39.626 69.2035007,39.879 C69.1995007,39.903 69.1805007,39.922 69.1725007,39.942 C68.9807925,40.6541737 68.3360227,41.1498353 67.5985007,41.152 L66.1055007,41.152 C65.2013136,41.1520027 64.4677061,40.4201845 64.4655007,39.516 C64.4655007,39.301 64.5085007,39.102 64.5825007,38.915 L64.0165007,38.915 Z M66.1065007,38.915 C65.7751299,38.915 65.5065007,39.1836292 65.5065007,39.515 C65.5065007,39.8463708 65.7751299,40.115 66.1065007,40.115 L67.5985007,40.114 C67.9298716,40.114 68.1985007,39.8453708 68.1985007,39.514 C68.1985007,39.1826292 67.9298716,38.914 67.5985007,38.914 L66.1055007,38.914 L66.1065007,38.915 Z M75.9465007,38.915 L75.9465007,41.606 L76.1525007,41.606 C76.2771938,41.6043839 76.3778847,41.5036931 76.3795007,41.379 L76.3795007,39.141 C76.377349,39.0166976 76.2768115,38.916603 76.1525007,38.915 L75.9455007,38.915 L75.9465007,38.915 Z M71.3245007,38.918 C71.1108559,38.918 70.9134399,39.0319781 70.8066175,39.217 C70.6997951,39.4020218 70.6997951,39.6299782 70.8066175,39.815 C70.9134399,40.0000219 71.1108559,40.114 71.3245007,40.114 L72.8165007,40.114 C73.1463113,40.1129025 73.4134032,39.8458106 73.4145007,39.516 C73.4134032,39.1861894 73.1463113,38.9190975 72.8165007,38.918 L71.3245007,38.918 Z M23.9105007,38.942 C23.7859119,38.9425477 23.6850484,39.0434112 23.6845007,39.168 L23.6845007,41.403 C23.6845007,41.528 23.7855007,41.629 23.9105007,41.629 L24.1375007,41.629 L24.1375007,39.188 C24.1375007,39.184 24.1335007,39.18 24.1335007,39.18 L24.1335007,38.942 L23.9105007,38.942 Z M37.1055007,38.942 L37.1055007,41.629 L37.3165007,41.629 C37.440144,41.6273586 37.5395116,41.5266541 37.5395007,41.403 L37.5395007,39.168 C37.5395116,39.0443459 37.440144,38.9436414 37.3165007,38.942 L37.1065007,38.942 L37.1055007,38.942 Z M66.8515007,39.142 C67.0188911,39.1442324 67.1641711,39.2580002 67.2064694,39.4199735 C67.2487678,39.5819468 67.1776639,39.7522219 67.0327383,39.8360138 C66.8878127,39.9198056 66.7047693,39.8964713 66.5855007,39.779 C66.5146505,39.709428 66.4747381,39.6142976 66.4747381,39.515 C66.4747381,39.4157024 66.5146505,39.320572 66.5855007,39.251 C66.6555007,39.181 66.7505007,39.141 66.8515007,39.141 L66.8515007,39.142 Z M72.0665007,39.142 C72.2179213,39.1403974 72.3552015,39.2307401 72.4136305,39.3704426 C72.4720596,39.5101451 72.439975,39.6713227 72.3325007,39.778 C72.2383613,39.8723181 72.1010547,39.9092489 71.972303,39.8748807 C71.8435514,39.8405126 71.7429152,39.740067 71.708303,39.6113807 C71.6736909,39.4826945 71.7103612,39.3453181 71.8045007,39.251 C71.873712,39.1809227 71.9680076,39.141333 72.0665007,39.141 L72.0665007,39.142 Z M28.0065007,39.536 C28.4182127,39.5370961 28.7518532,39.8702899 28.7535007,40.282 C28.7535007,40.6940044 28.4195052,41.028 28.0075007,41.028 C27.5954963,41.028 27.2615007,40.6940044 27.2615007,40.282 C27.2615007,39.8699956 27.5954963,39.536 28.0075007,39.536 L28.0065007,39.536 Z M33.2265007,39.536 C33.6378222,39.5376442 33.9708565,39.8706786 33.9725007,40.282 C33.9725007,40.6928999 33.6394006,41.026 33.2285007,41.026 C32.8176009,41.026 32.4845007,40.6928999 32.4845007,40.282 C32.4845007,39.872 32.8165007,39.54 33.2265007,39.536 Z M49.5155007,41.461 C49.6485007,41.461 49.7805007,41.512 49.8825007,41.614 C49.9247734,41.6566438 49.9824568,41.6804382 50.0425007,41.68 C50.1025447,41.6804382 50.1602281,41.6566438 50.2025007,41.614 C50.2998734,41.5163553 50.4321025,41.4614761 50.5700007,41.4614761 C50.707899,41.4614761 50.8401281,41.5163553 50.9375007,41.614 C51.1406582,41.8180559 51.1406582,42.1479441 50.9375007,42.352 C50.7006192,42.5902847 50.3784955,42.7242703 50.0425007,42.7242703 C49.706506,42.7242703 49.3843823,42.5902847 49.1475007,42.352 C49.0001441,42.2024061 48.956544,41.9791856 49.0367796,41.7851378 C49.1170151,41.5910899 49.3055271,41.4638439 49.5155007,41.462 L49.5155007,41.461 Z M68.7145007,42.325 C69.0035007,42.325 69.2345007,42.559 69.2345007,42.845 C69.2345007,43.095 69.6865007,43.095 69.6865007,42.845 C69.6865007,42.5578119 69.9193127,42.325 70.2065007,42.325 C70.4936888,42.325 70.7265007,42.5578119 70.7265007,42.845 C70.7265007,43.544 70.1565007,44.114 69.4605007,44.114 C68.7605007,44.114 68.1945007,43.544 68.1945007,42.844 C68.1945007,42.559 68.4295007,42.324 68.7145007,42.324 L68.7145007,42.325 Z M29.8745007,42.348 C30.1635007,42.348 30.3945007,42.578 30.3945007,42.868 C30.3945007,43.114 30.8425007,43.114 30.8425007,42.868 C30.8425007,42.578 31.0775007,42.348 31.3665007,42.348 C31.6515007,42.348 31.8865007,42.578 31.8865007,42.868 C31.8865007,43.5669164 31.3199171,44.1335 30.6210007,44.1335 C29.9220844,44.1335 29.3555007,43.5669164 29.3555007,42.868 C29.3555007,42.578 29.5855007,42.348 29.8745007,42.348 Z M48.1795007,43.129 L51.9055007,43.129 C52.1955007,43.129 52.4295007,43.364 52.4295007,43.649 C52.4283979,44.9668466 51.3603474,46.0348972 50.0425007,46.036 C48.7259881,46.0332436 47.6600492,44.9655155 47.6595007,43.649 C47.6595007,43.364 47.8895007,43.129 48.1795007,43.129 Z M48.8045007,44.172 C49.016126,44.667941 49.5032951,44.9897273 50.0425007,44.9897273 C50.5817064,44.9897273 51.0688755,44.667941 51.2805007,44.172 L48.8045007,44.172 Z M67.1745007,44.407 C67.3116194,44.3945628 67.448124,44.4365918 67.5545007,44.524 C68.5185007,45.329 70.3975007,45.329 71.3625007,44.524 C71.4691356,44.4355391 71.6066139,44.3931957 71.7445406,44.4063316 C71.8824673,44.4194675 72.0094812,44.4870006 72.0975007,44.594 C72.2802003,44.8160123 72.2503312,45.1436809 72.0305007,45.329 C71.3545007,45.891 70.4405007,46.199 69.4605007,46.199 C68.4805007,46.199 67.5655007,45.887 66.8905007,45.329 C66.7839445,45.2405515 66.7169853,45.1133199 66.7044139,44.9754093 C66.6918425,44.8374986 66.7346931,44.7002572 66.8235007,44.594 C66.9099993,44.4857602 67.0373885,44.4180847 67.1755007,44.407 L67.1745007,44.407 Z M28.3345007,44.43 C28.4716194,44.4175628 28.608124,44.4595918 28.7145007,44.547 C29.6785007,45.352 31.5575007,45.352 32.5225007,44.547 C32.7453535,44.3670513 33.0708577,44.3967231 33.2575007,44.614 C33.3456479,44.7205775 33.3878008,44.8578303 33.3746704,44.9955121 C33.36154,45.1331939 33.2942038,45.2600049 33.1875007,45.348 C32.5105007,45.911 31.5975007,46.219 30.6205007,46.219 C29.6405007,46.219 28.7255007,45.911 28.0505007,45.349 C27.9429998,45.2611734 27.875334,45.1338057 27.8627322,44.9955626 C27.8501305,44.8573195 27.8936516,44.7198163 27.9835007,44.614 C28.0712947,44.5077999 28.1981883,44.4414691 28.3355007,44.43 L28.3345007,44.43 Z M48.2735007,48.567 L48.2775007,50.891 L49.9215007,52.915 L51.7185007,50.895 L51.7185007,48.571 C51.1673265,48.7441976 50.5932415,48.8335297 50.0155007,48.836 C49.4255007,48.836 48.8395007,48.743 48.2735007,48.567 Z M67.6715007,49.098 L67.6715007,50.969 L69.4175007,52.715 L71.1045007,51.028 L71.1045007,49.138 C70.5683867,49.2822208 70.0156743,49.3555124 69.4605007,49.356 C68.8546805,49.3544641 68.2520957,49.2676111 67.6705007,49.098 L67.6715007,49.098 Z M28.9055007,49.29 L28.9055007,50.989 L30.6625007,52.747 L32.3275007,51.083 L32.3275007,49.293 C32.0099843,49.3473322 31.6886191,49.3760912 31.3665007,49.379 L29.8735007,49.379 C29.5415007,49.379 29.2215007,49.344 28.9055007,49.289 L28.9055007,49.29 Z M33.3385007,51.54 L31.4245007,53.454 L32.4555007,54.484 L34.3695007,52.571 L33.3395007,51.54 L33.3385007,51.54 Z M72.0655007,51.54 L71.9955007,51.614 L71.9915007,51.614 L70.1595007,53.45 L70.9095007,54.2 C70.9215007,54.211 70.9255007,54.223 70.9335007,54.235 L71.1835007,54.485 L73.1015007,52.571 L72.0655007,51.54 Z M28.0455007,51.598 L27.0105007,52.629 L28.8665007,54.485 L29.8965007,53.454 L28.0465007,51.598 L28.0455007,51.598 Z M66.8265007,51.598 L65.7965007,52.629 L67.6515007,54.485 L67.9365007,54.2 L67.9365007,54.196 L68.6825007,53.454 L66.8265007,51.598 Z M52.3695007,51.728 L50.6195007,53.692 L51.3935007,54.462 C51.4015007,54.469 51.4085007,54.485 51.4165007,54.497 L51.6435007,54.723 L53.4015007,52.758 L52.3695007,51.728 Z M47.6275007,51.747 L46.6005007,52.774 L48.1705007,54.708 L49.1975007,53.68 L47.6275007,51.747 Z M35.2875007,53.129 L32.8275007,55.59 C32.6244729,55.7928121 32.2955286,55.7928121 32.0925007,55.59 L32.0335007,55.532 L33.3935007,65.946 C33.4131198,66.0803711 33.3777958,66.2169813 33.2955007,66.325 L31.0575007,69.309 C30.9592965,69.439939 30.8051745,69.517 30.6415007,69.517 C30.4778269,69.517 30.323705,69.439939 30.2255007,69.309 L27.9865007,66.325 C27.9042944,66.2165737 27.8693203,66.0795619 27.8895007,65.945 L29.2405007,55.587 L29.2365007,55.591 C29.1388777,55.6893194 29.0060538,55.7446136 28.8675007,55.7446136 C28.7289477,55.7446136 28.5961238,55.6893194 28.4985007,55.591 L26.0385007,53.134 L24.6435007,53.134 C20.8185007,53.134 17.7055007,56.244 17.7055007,60.067 L17.7055007,69.985 L36.0455007,69.985 L36.0455007,58.575 C36.0455007,58.333 36.0615007,58.099 36.0885007,57.865 C36.0965007,57.79 36.1125007,57.72 36.1195007,57.645 C36.1435007,57.485 36.1705007,57.325 36.2055007,57.165 L36.2685007,56.915 C36.3640447,56.55464 36.4908593,56.2033068 36.6475007,55.865 C36.6905007,55.771 36.7335007,55.677 36.7835007,55.587 C36.8385007,55.477 36.9015007,55.372 36.9635007,55.267 C37.0185007,55.173 37.0735007,55.079 37.1315007,54.989 C37.1985007,54.892 37.2685007,54.798 37.3385007,54.709 C37.4598729,54.5418594 37.5900572,54.3812989 37.7285007,54.228 C37.8075007,54.142 37.8855007,54.056 37.9685007,53.974 C38.0455007,53.896 38.1315007,53.825 38.2135007,53.747 C38.3035007,53.669 38.3935007,53.587 38.4875007,53.513 C38.5225007,53.485 38.5495007,53.458 38.5845007,53.431 C37.9325007,53.231 37.2565007,53.13 36.5735007,53.13 L35.2875007,53.13 L35.2875007,53.129 Z M42.5335007,53.133 C41.4981092,53.1352421 40.4851986,53.4351581 39.6155007,53.997 C39.5575007,54.032 39.4955007,54.067 39.4395007,54.106 C39.1785007,54.286 38.9325007,54.485 38.7095007,54.708 C38.6825007,54.735 38.6595007,54.766 38.6315007,54.798 C38.4315007,54.997 38.2565007,55.215 38.0915007,55.442 C38.0535007,55.497 38.0105007,55.555 37.9755007,55.61 C37.7997593,55.876104 37.647837,56.1571937 37.5215007,56.45 C37.5145007,56.465 37.5105007,56.485 37.5015007,56.504 C37.3895007,56.778 37.3035007,57.063 37.2365007,57.356 C37.2179647,57.4376089 37.2012937,57.5196303 37.1865007,57.602 C37.1239067,57.9226184 37.0911003,58.248339 37.0885007,58.575 L37.0885007,69.985 L41.2525007,69.985 L41.2525007,60.832 C41.2731994,60.5592935 41.5005098,60.3485822 41.7740007,60.3485822 C42.0474917,60.3485822 42.2748021,60.5592935 42.2955007,60.832 L42.2955007,69.985 L56.9155007,69.985 L56.9155007,60.832 C56.9325783,60.5562363 57.1612087,60.3413265 57.4375007,60.3413265 C57.7137927,60.3413265 57.9424232,60.5562363 57.9595007,60.832 L57.9595007,69.985 L60.6745007,69.985 L60.6745007,59.32 C60.6661172,59.1289633 60.7632589,58.9487385 60.9274454,58.8507176 C61.0916319,58.7526968 61.2963695,58.7526968 61.4605561,58.8507176 C61.6247426,58.9487385 61.7218843,59.1289633 61.7135007,59.32 L61.7135007,69.98 L62.8935007,69.98 L62.8935007,58.575 C62.8935007,58.239 62.8495007,57.919 62.7955007,57.598 C62.7795007,57.516 62.7605007,57.438 62.7445007,57.356 C62.6775851,57.0625901 62.5872969,56.7750056 62.4745007,56.496 C62.4675007,56.481 62.4675007,56.466 62.4595007,56.45 C62.3336588,56.1563792 62.1806607,55.8751573 62.0025007,55.61 C61.9675007,55.555 61.9245007,55.5 61.8855007,55.446 C61.7229536,55.2114457 61.541338,54.9906974 61.3425007,54.786 C61.3185007,54.762 61.2995007,54.735 61.2725007,54.711 C61.0474651,54.486234 60.8013317,54.2836344 60.5375007,54.106 C60.4825007,54.067 60.4275007,54.036 60.3695007,53.996 C59.4980066,53.434962 58.4839657,53.1354694 57.4475007,53.133 L54.4675007,53.133 L52.0575007,55.833 C51.9610811,55.9393707 51.8250412,56.00124 51.6815007,56.004 L51.6705007,56.004 C51.5345839,56.0036446 51.4041018,55.9505914 51.3065007,55.856 L52.6625007,66.208 C52.678789,66.3440171 52.6422812,66.4811004 52.5605007,66.591 L50.3225007,69.571 C50.2243311,69.7013035 50.0716206,69.7791343 49.9085007,69.782 C49.7441791,69.7804504 49.5898335,69.7029083 49.4905007,69.572 L47.2525007,66.591 C47.1700801,66.4815038 47.1348008,66.3436263 47.1545007,66.208 L48.5105007,55.845 L48.5025007,55.853 C48.4051026,55.950237 48.2731286,56.0048965 48.1355007,56.005 L48.1075007,56.005 C47.9600139,55.9971439 47.8225597,55.9278727 47.7285007,55.814 L45.5485007,53.134 L42.5335007,53.134 L42.5335007,53.133 Z M63.4245007,53.133 C62.7386562,53.132217 62.0566283,53.2350437 61.4015007,53.438 C61.4325007,53.461 61.4635007,53.493 61.4955007,53.52 C61.5855007,53.59 61.6665007,53.669 61.7525007,53.743 C61.8425007,53.821 61.9285007,53.895 62.0145007,53.981 C62.0845007,54.051 62.1515007,54.129 62.2175007,54.204 C62.3705007,54.368 62.5145007,54.54 62.6475007,54.719 C62.7135007,54.809 62.7805007,54.895 62.8425007,54.989 C62.9015007,55.083 62.9555007,55.176 63.0145007,55.27 C63.0775007,55.376 63.1355007,55.477 63.1945007,55.586 C63.2415007,55.68 63.2845007,55.774 63.3275007,55.868 C63.3815007,55.985 63.4325007,56.106 63.4835007,56.231 C63.5145007,56.321 63.5495007,56.407 63.5805007,56.501 C63.6275007,56.633 63.6665007,56.774 63.7025007,56.915 C63.7255007,56.997 63.7525007,57.083 63.7725007,57.165 C63.8075007,57.325 63.8305007,57.485 63.8545007,57.645 C63.9028874,57.9526546 63.9276265,58.2635648 63.9285007,58.575 L63.9285007,69.985 L76.3265007,69.985 L76.3265007,59.32 C76.3265007,59.03 76.5565007,58.8 76.8465007,58.8 C77.1355007,58.8 77.3665007,59.03 77.3665007,59.32 L77.3665007,69.984 L82.2915007,69.984 L82.2915007,60.066 C82.2881925,56.2378287 79.1856721,53.1353082 75.3575007,53.132 L74.0105007,53.132 L71.5535007,55.589 C71.3514927,55.7880213 71.0276777,55.7897956 70.8235007,55.593 L72.1735007,65.945 C72.1934026,66.0792348 72.1584427,66.2158308 72.0765007,66.324 L69.8385007,69.308 C69.7389508,69.4382624 69.5844472,69.5147749 69.4205007,69.515 C69.2579261,69.513689 69.1050943,69.4372731 69.0065007,69.308 L66.7685007,66.324 C66.6862057,66.2159813 66.6508817,66.0793711 66.6705007,65.945 L67.4435007,60.015 C67.4435007,59.968 67.4515007,59.929 67.4595007,59.886 L68.0215007,55.586 L68.0185007,55.59 C67.8143292,55.7938221 67.4836723,55.7938221 67.2795007,55.59 L64.8195007,53.133 L63.4245007,53.133 Z M30.6395007,54.184 L30.2565007,54.567 L30.6395007,54.95 L31.0225007,54.567 L30.6395007,54.184 Z M69.4165007,54.192 L69.0415007,54.567 L69.4215007,54.95 L69.7995007,54.57 L69.4165007,54.192 Z M49.8965007,54.454 L49.6265007,54.724 L49.5265007,54.829 L49.9045007,55.212 L50.2795007,54.837 L49.8965007,54.454 Z M30.2365007,56.016 L29.9085007,58.516 L31.2055007,57.219 L31.0455007,56.016 L31.0105007,56.056 C30.9128777,56.1543194 30.7800538,56.2096136 30.6415007,56.2096136 C30.5029477,56.2096136 30.3701238,56.1543194 30.2725007,56.056 L30.2365007,56.016 Z M69.0175007,56.016 L68.6855007,58.532 L69.9865007,57.235 L69.8305007,56.016 L69.7905007,56.056 C69.5864448,56.2591575 69.2565567,56.2591575 69.0525007,56.056 L69.0175007,56.016 Z M49.4975007,56.278 L49.2595007,58.11 L50.3995007,56.97 L50.3095007,56.278 L50.2755007,56.317 C50.0704345,56.5186477 49.741567,56.5186477 49.5365007,56.317 L49.4975007,56.277 L49.4975007,56.278 Z M50.5675007,58.27 L49.0375007,59.801 L48.7435007,62.055 L50.7985007,60.005 L50.5685007,58.27 L50.5675007,58.27 Z M31.3725007,58.524 L29.6855007,60.212 L29.4665007,61.895 L31.5405007,59.821 L31.3725007,58.524 Z M70.1575007,58.536 L68.4675007,60.227 L68.2245007,62.067 L70.3415007,59.95 L70.1575007,58.536 Z M31.7125007,61.122 L29.2445007,63.59 L28.9625007,65.735 L31.8925007,62.809 C31.9045007,62.797 31.9165007,62.794 31.9275007,62.782 L31.7125007,61.122 Z M70.5135007,61.254 L68.0065007,63.758 L67.7485007,65.735 L70.6745007,62.809 C70.6855007,62.797 70.7015007,62.794 70.7135007,62.782 L70.5135007,61.254 Z M50.9665007,61.309 L48.5215007,63.751 L48.2285007,65.997 L51.1585007,63.071 C51.1705007,63.059 51.1815007,63.055 51.1935007,63.047 L50.9665007,61.309 Z M32.0995007,64.075 L29.5255007,66.645 L30.6395007,68.129 L32.3345007,65.872 L32.0995007,64.075 Z M70.8805007,64.075 L68.3105007,66.645 L69.4205007,68.129 L71.1155007,65.872 L70.8805007,64.075 Z M51.3605007,64.336 L48.7945007,66.906 L49.9045007,68.391 L51.5945007,66.133 L51.3605007,64.336 Z" id="Shape"></path>
            </g>
        </g>
    </g>
</svg>