<?xml version="1.0" encoding="UTF-8"?>
<svg width="978px" height="564px" viewBox="0 0 978 564" version="1.1" xmlns="http://www.w3.org/2000/svg" xmlns:xlink="http://www.w3.org/1999/xlink">
    <!-- Generator: Sketch 50.2 (55047) - http://www.bohemiancoding.com/sketch -->
    <title>Group 7</title>
    <desc>Created with Sketch.</desc>
    <defs></defs>
    <g id="Page-1" stroke="none" stroke-width="1" fill="none" fill-rule="evenodd">
        <g id="Careeer-V3" transform="translate(-154.000000, -2578.000000)">
            <g id="Group-7" transform="translate(154.000000, 2580.000000)">
                <g id="Group-26-Copy" transform="translate(0.000000, 11.000000)" fill="#4D3886">
                    <path d="M388.220547,313.452071 C419.144255,337.805302 439,375.583872 439,418 C439,491.453872 379.453872,551 306,551 C232.546128,551 173,491.453872 173,418 C173,377.921001 190.727924,341.98258 218.770041,317.598468 L163.627865,262.456292 C153.794876,264.77381 143.540634,266 133,266 C59.5461283,266 0,206.453872 0,133 C0,59.5461283 59.5461283,0 133,0 C206.453872,0 266,59.5461283 266,133 C266,194.290939 224.541204,245.898657 168.137596,261.309169 L221.83853,315.010103 C244.764432,296.253169 274.068057,285 306,285 C335.588546,285 362.920388,294.662097 385.0125,311.003264 L436.837584,259.178181 C384.049863,241.547145 346,191.717083 346,133 C346,59.5461283 405.546128,0 479,0 C552.453872,0 612,59.5461283 612,133 C612,191.760397 573.89398,241.620656 521.045573,259.217146 L572.473732,310.645305 C594.480076,294.52109 621.628153,285 651,285 C683.147474,285 712.631029,296.405593 735.624826,315.390938 L789.526903,261.488861 C732.784719,246.30342 691,194.531382 691,133 C691,59.5461283 750.546128,0 824,0 C897.453872,0 957,59.5461283 957,133 C957,206.453872 897.453872,266 824,266 C813.703793,266 803.68085,264.830019 794.056866,262.615753 L738.680558,317.992061 C766.461851,342.36845 784,378.136098 784,418 C784,491.453872 724.453872,551 651,551 C577.546128,551 518,491.453872 518,418 C518,375.367898 538.058462,337.420701 569.252684,313.081111 L516.740746,260.569174 C504.776483,264.103238 492.109748,266 479,266 C465.846329,266 453.138645,264.090507 441.139022,260.533597 L388.220547,313.452071 Z" id="Combined-Shape"></path>
                </g>
                <circle id="Oval-10" stroke="#4D3886" stroke-width="4" fill="#FFFFFF" cx="136" cy="134" r="134"></circle>
                <circle id="Oval-10-Copy" stroke="#4D3886" stroke-width="4" fill="#FFFFFF" cx="489" cy="134" r="134"></circle>
                <circle id="Oval-10-Copy-2" stroke="#4D3886" stroke-width="4" fill="#FFFFFF" cx="842" cy="134" r="134"></circle>
                <circle id="Oval-10-Copy-3" stroke="#4D3886" stroke-width="4" fill="#FFFFFF" cx="664" cy="420" r="134"></circle>
                <circle id="Oval-10-Copy-4" stroke="#4D3886" stroke-width="4" fill="#FFFFFF" cx="318" cy="420" r="134"></circle>
                <text id="Interview-Prep" font-family="OpenSans-Bold, Open Sans" font-size="18" font-weight="bold" fill="#3E2D6C">
                    <tspan x="595.178711" y="440">Interview Prep</tspan>
                </text>
                <text id="Know-which-questions" font-family="OpenSans-SemiBold, Open Sans" font-size="16" font-weight="500" fill="#3E2D6C">
                    <tspan x="570.097656" y="472">Know how to pitch your </tspan>
                    <tspan x="590.78125" y="494">value and skill-set</tspan>
                </text>
                <g id="Group-10" transform="translate(37.000000, 132.000000)" fill="#3E2D6C">
                    <text id="Skill-Development" font-family="OpenSans-Bold, Open Sans" font-size="18" font-weight="bold">
                        <tspan x="24.1572266" y="19">Skill Development</tspan>
                    </text>
                    <text id="Education-plan-based" font-family="OpenSans-SemiBold, Open Sans" font-size="16" font-weight="500">
                        <tspan x="9.78515625" y="51">Education plan based on </tspan>
                        <tspan x="32.8398438" y="73">skill gaps, timeline</tspan>
                        <tspan x="55.390625" y="95">and budget</tspan>
                    </text>
                </g>
                <g id="Group-11" transform="translate(383.000000, 132.000000)" fill="#3E2D6C">
                    <text id="Job-Search-Strategy" font-family="OpenSans-Bold, Open Sans" font-size="18" font-weight="bold">
                        <tspan x="18.7827148" y="19">Job Search Strategy</tspan>
                    </text>
                    <text id="Strategic-support-on" font-family="OpenSans-SemiBold, Open Sans" font-size="16" font-weight="500">
                        <tspan x="7.671875" y="51">Search for work efficiently </tspan>
                        <tspan x="52.078125" y="73">and land more </tspan>
                        <tspan x="66.3085938" y="95">interviews</tspan>
                    </text>
                </g>
                <g id="Group-12" transform="translate(738.000000, 132.000000)" fill="#3E2D6C">
                    <text id="Offer-and-Negotiatio" font-family="OpenSans-Bold, Open Sans" font-size="18" font-weight="bold">
                        <tspan x="6.72412109" y="19">Offer and Negotiation</tspan>
                    </text>
                    <text id="We-help-you-position" font-family="OpenSans-SemiBold, Open Sans" font-size="16" font-weight="500">
                        <tspan x="23.7578125" y="51">Position your value to</tspan>
                        <tspan x="40.1484375" y="73">get the best offer</tspan>
                        <tspan x="71.953125" y="95">possible</tspan>
                    </text>
                </g>
                <g id="Group-14" transform="translate(210.000000, 421.000000)" fill="#3E2D6C">
                    <text id="Professional-Brandin" font-family="OpenSans-Bold, Open Sans" font-size="18" font-weight="bold">
                        <tspan x="7.11962891" y="19">Professional Branding</tspan>
                    </text>
                    <text id="Resume,-Cover-Letter" font-family="OpenSans-SemiBold, Open Sans" font-size="16" font-weight="500">
                        <tspan x="19.6875" y="51">Resume, Cover Letter, </tspan>
                        <tspan x="35.7929688" y="73">UX Portfolio, and </tspan>
                        <tspan x="65.265625" y="95">LinkedIn</tspan>
                    </text>
                </g>
                <g id="Icon_SkillDevelopment" transform="translate(104.000000, 12.000000)">
                    <ellipse id="Oval" fill="#D7E5ED" fill-rule="nonzero" cx="60" cy="51.5186916" rx="24" ry="26.9859813"></ellipse>
                    <ellipse id="Oval" fill="#68CAD4" fill-rule="nonzero" cx="21" cy="85.864486" rx="18" ry="19.135514"></ellipse>
                    <ellipse id="Oval" fill="#8A8AC3" fill-rule="nonzero" cx="23.5" cy="20.1168224" rx="17.5" ry="18.1542056"></ellipse>
                    <path d="M25.0672716,100.023951 L26.7444009,102.873266 C27.3887902,103.968847 28.8136796,104.343897 29.9282561,103.711299 L33.1210799,101.89409 C33.6636476,101.59714 34.0634035,101.099615 34.2317552,100.511776 C34.4001069,99.9239363 34.3231504,99.2943307 34.0179405,98.7624899 L32.3497798,95.9219968 C34.2594963,93.9930932 35.6283623,91.6103008 36.3228723,89.0060134 L39.6681624,89.0060134 C40.9560007,89.0060134 42,87.979149 42,86.7124475 L42,83.0868491 C42,81.8201476 40.9560007,80.7932832 39.6681624,80.7932832 L36.3228723,80.7932832 C35.6078202,78.1816861 34.2138208,75.7981869 32.2780309,73.8772998 L33.9461917,71.0368067 C34.2514016,70.5049659 34.3283581,69.8753603 34.1600064,69.2875207 C33.9916547,68.6996811 33.5918987,68.2021567 33.0493311,67.905207 L29.8565073,66.0879971 C29.315792,65.7877965 28.6756804,65.7121031 28.0780318,65.8776917 C27.4803832,66.0432803 26.9745568,66.4364752 26.6726521,66.9701379 L25.0672716,69.7753454 C22.420398,69.1007435 19.6423997,69.1007435 16.9955261,69.7753454 L15.3183967,66.9260308 C15.016492,66.3923682 14.5106656,65.9991733 13.913017,65.8335847 C13.3153684,65.6679961 12.6752568,65.7436895 12.1345415,66.0438901 L8.90584331,67.9228499 C7.79198107,68.556663 7.41067263,69.9581662 8.05382573,71.0544495 L9.72198647,73.8949426 C7.7832043,75.8135837 6.38871903,78.1979138 5.6771451,80.810926 L2.331855,80.810926 C1.71268203,80.80857 1.11817729,81.0494563 0.680352601,81.4800951 C0.242527914,81.9107339 -0.00237787409,82.4954812 1.74061287e-05,83.1044919 L1.74061287e-05,86.7300903 C-0.00237787409,87.339101 0.242527914,87.9238483 0.680352601,88.3544872 C1.11817729,88.785126 1.71268203,89.0260122 2.331855,89.0236562 L5.6771451,89.0236562 C6.38871903,91.6366684 7.7832043,94.0209985 9.72198647,95.9396396 L8.05382573,98.7977756 C7.41067263,99.8940589 7.79198107,101.295562 8.90584331,101.929375 L12.1076357,103.711299 C13.2222122,104.343897 14.6471016,103.968847 15.2914909,102.873266 L16.9686202,100.023951 C19.6240142,100.703133 22.4118776,100.703133 25.0672716,100.023951 Z" id="Shape" stroke="#4A3C81" stroke-width="3"></path>
                    <path d="M65.3758207,72.2933955 L67.5996797,76.024924 C68.0120931,76.7144563 68.6907757,77.2170984 69.4862943,77.422178 C70.2818129,77.6272576 71.1289396,77.5179593 71.8411529,77.1183486 L76.0915933,74.740584 C76.8034941,74.3431431 77.3227208,73.6879001 77.5346947,72.9194484 C77.7466686,72.1509967 77.633966,71.3325013 77.2214572,70.6445807 L75.0334668,66.9304082 C77.6072091,64.4122247 79.4611436,61.2904155 80.413771,57.8706042 L84.8973579,57.8706042 C86.6108998,57.8706042 88,56.526304 88,54.8680255 L88,50.1298522 C88,48.4715738 86.6108998,47.1272735 84.8973579,47.1272735 L80.413771,47.1272735 C79.4582962,43.71367 77.6045417,40.5981439 75.0334668,38.0848256 L77.2483587,34.3706531 C77.6612868,33.6814093 77.7742275,32.8616034 77.5623134,32.0917411 C77.3503994,31.3218787 76.8310063,30.6650844 76.1184948,30.2659718 L71.8680544,27.8968851 C71.1558411,27.4972744 70.3087145,27.3879761 69.5131958,27.5930557 C68.7176772,27.7981353 68.0389946,28.3007774 67.6265813,28.9903097 L65.3758207,32.7044822 C61.8480333,31.8134807 58.1429996,31.8134807 54.6152122,32.7044822 L52.3913531,28.9729538 C51.9776058,28.2798302 51.2942784,27.775912 50.4939588,27.5737245 C49.6936391,27.371537 48.842984,27.48792 48.1319456,27.8968851 L43.8815052,30.2659718 C43.1689937,30.6650844 42.6496006,31.3218787 42.4376866,32.0917411 C42.2257725,32.8616034 42.3387132,33.6814093 42.7516413,34.3706531 L44.9665332,38.0848256 C42.3915021,40.5952229 40.5371074,43.7118251 39.586229,47.1272735 L35.1026421,47.1272735 C33.3891002,47.1272735 32,48.4715738 32,50.1298522 L32,54.8853815 C32.0047194,55.6847529 32.3386256,56.4493039 32.9277409,57.0096462 C33.5168562,57.5699885 34.3125416,57.8798587 35.1385108,57.8706042 L39.6220977,57.8706042 C40.572976,61.2860527 42.4273708,64.4026549 45.0024019,66.9130522 L42.7516413,70.6445807 C42.339875,71.3335548 42.2285371,72.1528434 42.4422282,72.9214206 C42.6559193,73.6899977 43.1770495,74.3445979 43.8904724,74.740584 L48.1319456,77.1183486 C48.8427917,77.5175536 49.6885642,77.6266214 50.4826251,77.4214839 C51.2766861,77.2163463 51.9537656,76.7138653 52.3644516,76.024924 L54.5883106,72.2933955 C58.124611,73.1889327 61.8395203,73.1889327 65.3758207,72.2933955 Z" id="Shape" stroke="#4A3C81" stroke-width="3"></path>
                    <path d="M37.5402255,22.5390196 L40.8598198,22.2748695 C41.4742585,22.2276995 42.0444309,21.9412563 42.4445448,21.4787354 C42.8446588,21.0162145 43.0418342,20.4156244 42.9925699,19.8094681 L42.7070134,16.190611 C42.6027118,14.9303439 41.4861756,13.9899707 40.208394,14.0862148 L36.8977234,14.3415599 C35.9789081,11.8025901 34.403967,9.54442951 32.3288194,7.79063614 L33.7566019,4.84095945 C34.3055174,3.702887 33.8188768,2.34109086 32.6679178,1.79442769 L29.3483235,0.218331787 C28.1851737,-0.320400306 26.7995861,0.172094955 26.2518202,1.31895742 L24.8240377,4.25982911 C22.1378484,3.77892293 19.3712867,3.99123928 16.7927612,4.87617947 L14.9009494,2.19945793 C14.1720482,1.15936172 12.7284805,0.8957341 11.6705915,1.60952259 L8.64547737,3.64347876 C7.59136728,4.36268962 7.32418764,5.78706571 8.04759346,6.83089059 L9.93048161,9.53402715 C8.1691276,11.5929261 6.97377341,14.0640365 6.45918544,16.7101063 L3.13959115,16.9742564 C1.8636902,17.0725865 0.909432285,18.1717432 1.00684105,19.4308528 L1.30132119,23.0497099 C1.40097616,24.3086484 2.51494251,25.2502199 3.79101691,25.1541061 L7.10168756,24.898761 C8.02050281,27.4377308 9.5954439,29.6958914 11.6705915,31.4496848 L10.2785036,34.4169715 C10.0129976,34.9643467 9.97954331,35.5935628 10.1855457,36.1653451 C10.391548,36.7371274 10.8200166,37.204317 11.3761114,37.4635032 L14.686782,39.0307941 C15.845138,39.5719029 17.2289076,39.0879234 17.7832853,37.9477785 L19.2021442,34.9892968 C21.8883955,35.4689997 24.6546453,35.2567072 27.2334207,34.3729464 L29.1073852,37.067278 C29.8362864,38.1073742 31.2798541,38.3710018 32.3377431,37.6572133 L35.3628572,35.6056472 C35.8730921,35.2632264 36.2233664,34.7337007 36.3356678,34.1350047 C36.4479691,33.5363086 36.3129715,32.9181614 35.9607411,32.4182353 L34.077853,29.7150988 C35.8393999,27.6574283 37.032089,25.1854727 37.5402255,22.5390196 Z" id="Shape" stroke="#4A3C81" stroke-width="3"></path>
                    <ellipse id="Oval" stroke="#4A3C81" stroke-width="3" cx="21" cy="19.6261682" rx="6" ry="5.88785047"></ellipse>
                    <path d="M26.9999401,85.347547 C26.9851624,82.0992383 24.2923625,79.476351 20.9821628,79.4860079 C17.6719631,79.4956648 14.9951028,82.1342171 15.0000067,85.3825546 C15.0049107,88.6308922 17.6897259,91.2616499 20.9999402,91.2616822 C22.595891,91.2616978 24.1260878,90.6377657 25.2520792,89.5278881 C26.3780706,88.4180105 27.0070649,86.9136512 26.9999401,85.347547 Z" id="Shape" stroke="#4A3C81" stroke-width="3"></path>
                    <ellipse id="Oval" stroke="#4A3C81" stroke-width="3" cx="59.5" cy="52.5" rx="5.5" ry="5.39719626"></ellipse>
                    <path d="M69,61.8224299 C71.5611282,59.3501465 73,55.9967013 73,52.5 C73,49.0032987 71.5611282,45.6498535 69,43.1775701" id="Shape" stroke="#4A3C81" stroke-width="3" stroke-linecap="round"></path>
                    <path d="M50,43.1775701 C47.4388718,45.6498535 46,49.0032987 46,52.5 C46,55.9967013 47.4388718,59.3501465 50,61.8224299" id="Shape" stroke="#4A3C81" stroke-width="3" stroke-linecap="round"></path>
                </g>
                <g id="Icon_JobSearchStrategy" transform="translate(432.000000, 19.000000)">
                    <rect id="Rectangle-path" fill="#8A8AC3" fill-rule="nonzero" x="0.5" y="14.51" width="112.7" height="84.52" rx="3.79"></rect>
                    <rect id="Rectangle-path" fill="#68CAD4" fill-rule="nonzero" x="23.95" y="26.71" width="11.15" height="16.67" rx="3.81"></rect>
                    <rect id="Rectangle-path" fill="#68CAD4" fill-rule="nonzero" x="75.46" y="26.71" width="11.15" height="16.67" rx="3.44"></rect>
                    <rect id="Rectangle-path" stroke="#4A3C81" stroke-width="3" stroke-linecap="round" stroke-linejoin="round" x="0.5" y="14.11" width="108.21" height="81.16" rx="3.79"></rect>
                    <path d="M76.43,14.11 L76.43,5.36 C76.43,4.07104786 75.9179658,2.83488784 75.006539,1.92346104 C74.0951122,1.01203424 72.8589521,0.5 71.57,0.5 L37.64,0.5 C34.9558961,0.5 32.78,2.67589612 32.78,5.36 L32.78,14.11" id="Shape" stroke="#4A3C81" stroke-width="3" stroke-linecap="round" stroke-linejoin="round"></path>
                    <path d="M86.49,33.84 L99.11,33.84" id="Shape" stroke="#4A3C81" stroke-width="3" stroke-linecap="round" stroke-linejoin="round"></path>
                    <path d="M32.78,33.84 L76.43,33.84" id="Shape" stroke="#4A3C81" stroke-width="3" stroke-linecap="round" stroke-linejoin="round"></path>
                    <path d="M10.1,33.84 L22.72,33.84" id="Shape" stroke="#4A3C81" stroke-width="3" stroke-linecap="round" stroke-linejoin="round"></path>
                    <rect id="Rectangle-path" stroke="#4A3C81" stroke-width="3" stroke-linecap="round" stroke-linejoin="round" x="22.72" y="26.32" width="10.06" height="15.04"></rect>
                    <rect id="Rectangle-path" stroke="#4A3C81" stroke-width="3" stroke-linecap="round" stroke-linejoin="round" x="76.43" y="26.32" width="10.06" height="15.04"></rect>
                    <polyline id="Shape" stroke="#4A3C81" stroke-width="3" stroke-linecap="round" stroke-linejoin="round" points="74.12 87.86 101.3 87.86 101.3 60.67"></polyline>
                </g>
                <g id="Icon_ProfessionalBranding" transform="translate(267.000000, 306.000000)">
                    <circle id="Oval" fill="#CFDFE7" fill-rule="nonzero" cx="51" cy="57.81" r="51"></circle>
                    <circle id="Oval" fill="#F58467" fill-rule="nonzero" cx="48.5" cy="56.81" r="27.5"></circle>
                    <circle id="Oval" fill="#D5E0EB" fill-rule="nonzero" cx="49.75" cy="57.56" r="10.25"></circle>
                    <path d="M87.36,26.27 C95.15,35.04 98.36,45.27 98.36,56.87 C98.3599977,83.4543839 76.8110475,105.006315 50.2266639,105.009995 C23.6422803,105.013675 2.08736416,83.4677106 2.08000185,56.8833278 C2.07263954,30.298945 23.6156184,8.74104461 50.2,8.73 C61.51,8.73 72.27,12.28 80.41,19.4" id="Shape" stroke="#4A3C81" stroke-width="3"></path>
                    <path d="M72.56,41.22 C75.4,43.98 77.49,51.15 77.49,56.87 C77.4844776,71.9405478 65.2638842,84.1536804 50.1933358,84.1499992 C35.1227874,84.1463179 22.9081619,71.9272166 22.910002,56.8566679 C22.9118422,41.7861191 35.1294511,29.570001 50.2,29.57 C55.69,29.57 61.65,31.13 65.62,34.35" id="Shape" stroke="#4A3C81" stroke-width="3"></path>
                    <path d="M92.15,14.26 L92.15,4.75" id="Shape" stroke="#4A3C81" stroke-width="3"></path>
                    <path d="M87.3,18.78 L87.3,9.27" id="Shape" stroke="#4A3C81" stroke-width="3"></path>
                    <path d="M97.07,9.51 L97.07,0" id="Shape" stroke="#4A3C81" stroke-width="3"></path>
                    <path d="M92.19,14.31 L101.7,14.31" id="Shape" stroke="#4A3C81" stroke-width="3"></path>
                    <path d="M87.68,19.16 L97.18,19.16" id="Shape" stroke="#4A3C81" stroke-width="3"></path>
                    <path d="M96.95,9.38 L106.46,9.38" id="Shape" stroke="#4A3C81" stroke-width="3"></path>
                    <path d="M59.25,56.87 C59.2458955,60.5340083 57.0329208,63.8340102 53.6447102,65.2286438 C50.2564996,66.6232774 46.3616896,65.8373228 43.7794646,63.2378829 C41.1972395,60.638443 40.4371811,56.7384968 41.8542966,53.3596275 C43.2714122,49.9807583 46.5860453,47.7897591 50.25,47.81 L50.7,47.81 L50.25,56.81 L97.07,9.51" id="Shape" stroke="#4A3C81" stroke-width="3" stroke-linecap="round"></path>
                </g>
                <g id="Icon_InterviewPrep" transform="translate(597.000000, 310.000000)">
                    <path d="M83.8216981,53.6886792 L114.420283,53.6886792 C115.271489,53.6881268 116.087828,54.0267828 116.688679,54.629717 L119.026415,56.9674528 C120.302855,58.2446583 122.222652,58.6278741 123.891624,57.9386102 C125.560597,57.2493463 126.650532,55.6231502 126.653774,53.8174528 L126.653774,4.55660377 C126.653782,2.79341427 125.227332,1.36253426 123.464151,1.35707547 L44.2188679,1.35707547 C43.363456,1.34648132 42.5394272,1.6788908 41.9308022,2.28007085 C41.3221772,2.8812509 40.9796514,3.70112622 40.979717,4.55660377 L40.979717,46.5566038" id="Shape" fill="#F58467" fill-rule="nonzero"></path>
                    <path d="M85.1193396,51.3410377 L85.1193396,90.2306604 C85.1193444,93.3451208 82.5974745,95.8714228 79.4830189,95.8768868 L15.7698113,95.8768868 C14.2827462,95.8850011 12.8589218,96.4794478 11.8075472,97.5311321 L7.3995283,101.949057 C6.66597004,102.708625 5.54307799,102.943458 4.56660952,102.541511 C3.59014105,102.139564 2.95796149,101.182286 2.97169811,100.126415 L2.97169811,51.3410377 C2.97716208,48.2265821 5.50346409,45.7047122 8.61792453,45.704717 L79.4830189,45.704717 C82.5958729,45.704717 85.1193396,48.2281837 85.1193396,51.3410377 Z" id="Shape" fill="#68CAD4" fill-rule="nonzero"></path>
                    <path d="M107.367453,18.4938679 L57.9283019,18.4938679" id="Shape" stroke="#4A3C81" stroke-width="3" stroke-linecap="round"></path>
                    <path d="M57.9283019,32.6688679 L107.367453,32.6688679" id="Shape" stroke="#4A3C81" stroke-width="3" stroke-linecap="round"></path>
                    <path d="M82.6429245,50.6674528 L111.993396,50.6674528 C112.807403,50.6685197 113.58768,50.9927446 114.162736,51.5688679 L123.721698,61.1476415 L123.721698,3.55613208 C123.721698,2.74434443 123.399217,1.9658055 122.825196,1.39178495 C122.251176,0.817764404 121.472637,0.495283019 120.660849,0.495283019 L44.6349057,0.495283019 C42.9560621,0.511583238 41.6036945,1.87720935 41.6037736,3.55613208 L41.6037736,43.8523585" id="Shape" stroke="#4A3C81" stroke-width="3" stroke-linecap="round"></path>
                    <path d="M16.8495283,61.8509434 L66.2985849,61.8509434" id="Shape" stroke="#4A3C81" stroke-width="3" stroke-linecap="round"></path>
                    <path d="M66.2985849,76.0259434 L16.8495283,76.0259434" id="Shape" stroke="#4A3C81" stroke-width="3" stroke-linecap="round"></path>
                    <path d="M82.6429245,46.9132075 L82.6429245,90.9636792 C82.6429245,91.7754669 82.3204431,92.5540058 81.7464226,93.1280264 C81.172402,93.7020469 80.3938631,94.0245283 79.5820755,94.0245283 L12.2235849,94.0245283 C11.4095786,94.0255951 10.6293011,94.34982 10.0542453,94.9259434 L0.495283019,104.504717 L0.495283019,46.9132075 C0.500720108,45.2250045 1.86792906,43.8577956 3.55613208,43.8523585 L79.5820755,43.8523585 C80.3938631,43.8523585 81.172402,44.1748399 81.7464226,44.7488604 C82.3204431,45.322881 82.6429245,46.1014199 82.6429245,46.9132075 Z" id="Shape" stroke="#4A3C81" stroke-width="3" stroke-linecap="round"></path>
                </g>
                <g id="Icon_OfferAndNegotiation" transform="translate(767.000000, 34.000000)">
                    <path d="M0.5,10.11 L0.5,56.59 C0.499910741,59.324217 2.16853821,61.7815781 4.71,62.79 L6.28,63.41 C9.68,64.76 16.68,69.41 18.07,66.01 L31.23,19.89 C31.9016769,18.250054 31.8920544,16.4100356 31.2032623,14.7772043 C30.5144703,13.144373 29.2033148,11.853392 27.56,11.19 L9.67,3.93 C7.61466088,3.09905742 5.2807814,3.34363194 3.44235618,4.58261426 C1.60393095,5.82159658 0.501249924,7.89304648 0.5,10.11 Z" id="Shape" fill="#F2B0CF" fill-rule="nonzero"></path>
                    <path d="M151.08,14.91 L151.08,59.2 C151.080175,62.349291 149.157681,65.1795191 146.23,66.34 C142.32,67.89 135.13,73.68 133.54,69.78 L120.74,24.13 C119.146938,20.2032761 121.035392,15.7282669 124.96,14.13 L140.51,7.82 C142.873653,6.86526075 145.556816,7.14389601 147.673859,8.5639368 C149.790901,9.98397759 151.066643,12.360842 151.08,14.91 Z" id="Shape" fill="#8986C1" fill-rule="nonzero"></path>
                    <path d="M45.2,25.2 C46.43,21.41 49.4,22.2 53.39,22.3 C57.86,22.4 63.25,22.64 65.07,23.15 C68.37,24.15 64.77,25.85 61.21,33.44 C57.65,41.03 57.6,46.88 62.32,46.44 C67.04,46 67.14,44.56 71.32,38.57 C75.5,32.58 80.58,31.74 81.83,38.29 C83.08,44.84 97.69,48.61 100.51,53.29 C103.33,57.97 111.83,63.18 109.94,66.48 C108.05,69.78 86.85,90.48 77.42,87.69 C67.99,84.9 38.8,57.06 37.39,54.7 C36.37,53 42,35 45.2,25.2 Z" id="Shape" fill="#D4D5E2" fill-rule="nonzero"></path>
                    <path d="M73.57,22.15 C73.57,22.15 84.25,19.36 91.32,22.65 C98.39,25.94 104.79,24.54 107.14,32.55 C109.49,40.56 118,59.41 114.68,60.83 C111.36,62.25 104,64.09 103,60.1 C102,56.11 89.09,37.83 81.86,38.25 C74.63,38.67 69.86,48.57 65.2,47.16 C60.54,45.75 52.47,47.16 54.83,41.97 C57.19,36.78 68.85,22.63 73.57,22.15 Z" id="Shape" fill="#817A91" fill-rule="nonzero"></path>
                    <path d="M112.11,45.79 C94.78,57.42 81.86,38.26 81.86,38.26 C75.73,29.89 71.35,38.55 71.35,38.55 C68.13,46.37 63.49,45.66 60.75,44.32 C59.3731873,43.6171621 58.6956302,42.0305843 59.14,40.55 L61.21,33.45 C62.1128854,30.3287976 64.3494609,27.7664361 67.32,26.45 L75.14,23.01 C77.93,21.78 80.51,22.06 83.96,22.76 L104.33,27.59 L112.11,45.79 Z" id="Shape" stroke="#4A3C81" stroke-width="3"></path>
                    <path d="M116.41,55.85 L103,60.12 L94.59,48.4 C94.59,48.4 104.4,52.47 112.11,45.79 L116.41,55.85 Z" id="Shape" stroke="#4A3C81" stroke-width="3"></path>
                    <polygon id="Shape" stroke="#4A3C81" stroke-width="3" points="0.5 0.23 0.5 61.13 12.41 65.85 33.76 13.71"></polygon>
                    <polyline id="Shape" stroke="#4A3C81" stroke-width="3" points="32.04 17.93 47.25 24.33 33.76 55.85 18.88 50.06"></polyline>
                    <polygon id="Shape" stroke="#4A3C81" stroke-width="3" points="151.08 3.52 151.08 64.43 139.17 69.15 117.82 17.01"></polygon>
                    <polyline id="Shape" stroke="#4A3C81" stroke-width="3" points="119.54 21.22 104.33 27.63 117.82 59.15 132.7 53.36"></polyline>
                    <path d="M93.59,48.32 L105.16,62.83 C106.041014,63.943291 106.29012,65.430377 105.82,66.77 C105.269655,68.3024568 103.965341,69.440887 102.37255,69.7789986 C100.779759,70.1171103 99.1254399,69.6067276 98,68.43 L82.08,51.58" id="Shape" stroke="#4A3C81" stroke-width="3" stroke-linecap="round"></path>
                    <path d="M75.06,59.5 L88.43,73.5 C90.1043825,75.2556203 92.5758691,76.0061859 94.9437701,75.4781665 C97.311671,74.9501472 99.2301306,73.2206652 100,70.92 C100.027926,70.8414117 100.051298,70.7612787 100.07,70.68" id="Shape" stroke="#4A3C81" stroke-width="3" stroke-linecap="round"></path>
                    <path d="M68.65,66.08 L79.71,78.35 C80.9138974,79.7478737 82.620952,80.6139793 84.46,80.76 C86.55,80.87 89.19,80.07 91.46,76.44" id="Shape" stroke="#4A3C81" stroke-width="3" stroke-linecap="round"></path>
                    <path d="M47.25,24.33 C47.25,24.33 59.42,23.33 69.35,25.6" id="Shape" stroke="#4A3C81" stroke-width="3"></path>
                    <path d="M36.12,50.33 C47.4138945,58.4637135 58.0714274,67.4463958 68,77.2 L73.18,82.2 C74.3776148,83.3634655 76.118152,83.7737976 77.7093445,83.2677942 C79.300537,82.7617908 80.4843718,81.4215007 80.79,79.78 C80.7858035,79.7334277 80.7858035,79.6865723 80.79,79.64" id="Shape" stroke="#4A3C81" stroke-width="3"></path>
                    <path d="M44.9,56.91 L43.54,58.43 C42.9005352,59.141832 42.5803942,60.084438 42.6540725,61.0384776 C42.7277508,61.9925171 43.1888232,62.8747918 43.93,63.48 C45.5489523,64.8010647 47.9214339,64.6114425 49.31,63.05 L50.64,61.55" id="Shape" stroke="#4A3C81" stroke-width="3"></path>
                    <path d="M57.68,67.57 L54.68,70.83 C53.0886447,72.5696597 50.4010566,72.7248834 48.62,71.18 C47.7409822,70.4190493 47.2014298,69.3391887 47.1207297,68.1793586 C47.0400295,67.0195286 47.4248349,65.8753517 48.19,65 L51,61.83" id="Shape" stroke="#4A3C81" stroke-width="3"></path>
                    <path d="M57.68,67.57 L55.75,69.68 C54.1440956,71.4294488 54.2558905,74.1482985 56,75.76 C57.7393194,77.3801302 60.4607262,77.2907572 62.09,75.56 L64.09,73.42" id="Shape" stroke="#4A3C81" stroke-width="3"></path>
                    <path d="M70,79.1 L69,80.18 C67.4365984,81.7880619 64.8683718,81.8327267 63.25,80.28 C61.6276878,78.7305255 61.5606815,76.1619518 63.1,74.53 L63.87,73.72" id="Shape" stroke="#4A3C81" stroke-width="3"></path>
                </g>
            </g>
        </g>
    </g>
</svg>
