<?xml version="1.0" encoding="UTF-8"?>
<svg width="232px" height="154px" viewBox="0 0 232 154" version="1.1" xmlns="http://www.w3.org/2000/svg" xmlns:xlink="http://www.w3.org/1999/xlink">
    <!-- Generator: Sketch 50.2 (55047) - http://www.bohemiancoding.com/sketch -->
    <title>Group 9</title>
    <desc>Created with Sketch.</desc>
    <defs>
        <polygon id="path-1" points="5.44705255e-05 0.953707317 124.99435 0.953707317 124.99435 88.7493766 5.44705255e-05 88.7493766"></polygon>
        <polygon id="path-3" points="0.43387563 0.663890244 116.295613 0.663890244 116.295613 89.6335488 0.43387563 89.6335488"></polygon>
        <polygon id="path-5" points="4.73413425e-05 0.914736842 77.744729 0.914736842 77.744729 54.873906 4.73413425e-05 54.873906"></polygon>
        <polygon id="path-7" points="0.259 0.318710526 73.1859037 0.318710526 73.1859037 55 0.259 55"></polygon>
        <polygon id="path-9" points="0 0.315485497 55.7491631 0.315485497 55.7491631 39.4126411 0 39.4126411"></polygon>
    </defs>
    <g id="Page-1" stroke="none" stroke-width="1" fill="none" fill-rule="evenodd">
        <g id="FAQ" transform="translate(-61.000000, -87.000000)">
            <g id="Group-9" transform="translate(61.000000, 86.000000)">
                <g id="Group-2" opacity="0.5">
                    <g id="Group">
                        <g id="Group-3" transform="translate(0.000000, 0.241893)">
                            <mask id="mask-2" fill="white">
                                <use xlink:href="#path-1"></use>
                            </mask>
                            <g id="Clip-2"></g>
                            <path d="M123.807294,29.5919366 C118.568807,7.92796098 92.9288571,1.02374146 73.6407227,0.953229268 C66.6397647,0.928131707 56.7152773,2.03003415 46.6595294,4.53859512 C31.5072941,6.92644878 17.530437,12.8650098 7.78136134,26.2372293 C-4.73253782,43.3991805 -2.03334454,64.4404976 15.0162017,77.0944488 C39.1681345,95.0200829 79.9961176,90.4487415 104.556151,75.6818146 C120.367076,66.1746195 128.138891,47.5092049 123.807294,29.5919366" id="Fill-1" fill="#8A8BC3" mask="url(#mask-2)"></path>
                        </g>
                        <g id="Group-6" transform="translate(25.058824, 7.412624)">
                            <mask id="mask-4" fill="white">
                                <use xlink:href="#path-3"></use>
                            </mask>
                            <g id="Clip-5"></g>
                            <path d="M99.0176739,61.0450366 C103.031859,55.6753537 105.147539,49.5838171 105.147539,43.4301341 C105.147539,23.318622 83.0599765,6.94306098 55.9248504,6.94306098 C28.775405,6.94306098 6.7045479,23.318622 6.7045479,43.4301341 C6.7045479,63.5571829 28.775405,79.9327439 55.9248504,79.9327439 C63.1990689,79.9327439 70.2059933,78.7698902 76.758279,76.494378 C77.7928504,75.5669634 79.3453042,75.4582073 80.5684134,76.2422073 C87.2770185,80.5434512 97.9998084,82.5381098 105.320565,83.4021829 C101.228817,78.2201341 96.7766992,70.4327195 98.4222286,62.333378 C98.4222286,62.3011098 98.4377412,62.2700366 98.4377412,62.2389634 C98.4544471,62.1911585 98.4699597,62.1600854 98.4854723,62.1134756 C98.5952538,61.7035488 98.7837916,61.3593537 99.0176739,61.0450366 M115.196128,84.8614268 C116.213993,85.7255 116.560044,86.7616707 116.089892,88.0010122 C115.618548,89.2104756 114.458682,89.6335488 113.15801,89.6335488 L113.063741,89.6335488 C112.153271,89.6335488 91.6969176,89.2272073 79.0469849,82.3337439 C79.0314723,82.3504756 79.0004471,82.3648171 78.9682286,82.3815488 C71.710716,84.9235732 63.9508336,86.2119146 55.9248504,86.2119146 C25.3268336,86.2119146 0.43387563,67.026622 0.43387563,43.4301341 C0.43387563,19.8491829 25.3268336,0.663890244 55.9248504,0.663890244 C86.5252538,0.663890244 111.418212,19.8491829 111.418212,43.4301341 C111.418212,50.6988659 109.018531,57.8421098 104.48885,64.1380122 C103.250229,72.4907195 111.73085,81.8784024 115.196128,84.8614268" id="Fill-4" fill="#493B80" mask="url(#mask-4)"></path>
                        </g>
                    </g>
                    <path d="M76.6622681,69.8727467 C75.9150246,69.1216451 75.540805,68.160235 75.540805,66.9897183 C75.540805,65.8204033 75.9150246,64.8481773 76.6622681,64.075444 C77.4107072,63.3027106 78.3659833,62.9157431 79.5304875,62.9157431 C80.6531462,62.9157431 81.5880972,63.3027106 82.3377319,64.075444 C83.0849754,64.8481773 83.459195,65.8204033 83.459195,66.9897183 C83.459195,68.160235 83.0849754,69.1216451 82.3377319,69.8727467 C81.5880972,70.6250501 80.6531462,71 79.5304875,71 C78.3659833,71 77.4107072,70.6250501 76.6622681,69.8727467 M78.0658903,58.1519562 C77.7119957,57.7349446 77.5350485,57.1713179 77.5350485,56.4598745 C77.5350485,53.9950594 77.9726343,51.906396 78.8454147,50.1926826 C79.7181951,48.4801709 80.9855201,46.5994125 82.6485852,44.551609 C83.9792764,42.9640807 84.9656379,41.5748431 85.6100607,40.3826946 C86.2544835,39.1929497 86.5760971,37.8878355 86.5760971,36.4673521 C86.5760971,34.878622 85.9950405,33.6251836 84.8317318,32.7058352 C83.666032,31.7876886 82.1081787,31.3274135 80.1545853,31.3274135 C78.4090245,31.3274135 76.7770447,31.6711176 75.2598415,32.3609294 C73.7414427,33.0507411 72.0484878,34.0842569 70.1773901,35.4638804 C69.3452597,35.9650154 68.6601869,36.2161837 68.1197804,36.2161837 C67.4968782,36.2161837 66.9863614,35.9554013 66.5930124,35.4314328 C66.1972723,34.9098678 66,34.2717319 66,33.5206303 C66,32.5183603 66.3945446,31.6819335 67.1848293,31.0137535 C68.9303901,29.4682868 70.9975645,28.2460943 73.3887437,27.3471759 C75.7787274,26.4494592 78.1591463,26 80.5288049,26 C82.9391135,26 85.0899792,26.4170116 86.9825975,27.2534384 C88.8728247,28.0886634 90.3493779,29.2687942 91.4098658,30.793831 C92.4691582,32.3200694 93,34.0638269 93,36.027507 C93,37.5741755 92.7393615,38.983843 92.2204756,40.2589131 C91.7003941,41.5327814 91.0559713,42.6612365 90.2872072,43.6430765 C89.5172475,44.6249165 88.4687154,45.8471091 87.1380242,47.3096542 C85.4331134,49.1483509 84.1131825,50.777941 83.1782314,52.1972226 C82.2432803,53.6189077 81.6717885,55.2280678 81.4637559,57.0247029 C81.3800647,57.5678996 81.1612718,57.9957271 80.8097684,58.3081853 C80.4558739,58.6218454 80.0075278,58.7792763 79.4683169,58.7792763 C78.8860647,58.7792763 78.4185892,58.5701696 78.0658903,58.1519562" id="Fill-7" fill="#493B80"></path>
                </g>
                <g id="Group" opacity="0.75" transform="translate(143.000000, 36.000000)">
                    <g id="Group-3">
                        <mask id="mask-6" fill="white">
                            <use xlink:href="#path-5"></use>
                        </mask>
                        <g id="Clip-2"></g>
                        <path d="M77.006085,18.5158947 C73.747635,5.20107018 57.800535,0.958350877 45.80316,0.914929825 C41.44881,0.899491228 35.276085,1.57589474 29.02146,3.11782456 C19.59711,4.58545614 10.90401,8.2357193 4.83951,16.4538772 C-2.943915,27.0013333 -1.26399,39.9330877 9.34011,47.7102807 C24.361935,58.7276491 49.756785,55.9187895 65.03211,46.8428246 C74.866935,40.9993158 79.700985,29.5274737 77.006085,18.5158947" id="Fill-1" fill="#7ECFD8" mask="url(#mask-6)"></path>
                    </g>
                    <g id="Group-6" transform="translate(15.000000, 6.000000)">
                        <mask id="mask-8" fill="white">
                            <use xlink:href="#path-7"></use>
                        </mask>
                        <g id="Clip-5"></g>
                        <path d="M62.3104667,37.4292368 C64.83732,34.1292368 66.1683333,30.3853772 66.1683333,26.6029211 C66.1683333,14.2423947 52.2662,4.17835965 35.187,4.17835965 C18.0979333,4.17835965 4.20566667,14.2423947 4.20566667,26.6029211 C4.20566667,38.9730965 18.0979333,49.0371316 35.187,49.0371316 C39.7651333,49.0371316 44.1755333,48.3230965 48.2998,46.9239737 C48.951,46.3546754 49.9278,46.2871316 50.6974,46.7695877 C54.9203333,49.4134474 61.67012,50.638886 66.2778533,51.1695877 C63.7016667,47.9853772 60.8995333,43.1994123 61.9355333,38.2204649 C61.9355333,38.2011667 61.9454,38.1818684 61.9454,38.1625702 C61.9562533,38.1336228 61.9651333,38.1143246 61.975,38.0853772 C62.0440667,37.8345 62.1634533,37.6222193 62.3104667,37.4292368 M72.4928667,52.0669561 C73.1342,52.5976579 73.3512667,53.2345 73.0562533,53.9967807 C72.7592667,54.7397632 72.03012,55.0002895 71.2111867,55.0002895 L71.151,55.0002895 C70.5787333,55.0002895 57.7027333,54.7494123 49.7403333,50.5134474 C49.7304667,50.5230965 49.7107333,50.5327456 49.691,50.5423947 C45.1227333,52.1055526 40.2387333,52.8967807 35.187,52.8967807 C15.9272667,52.8967807 0.259,41.1055526 0.259,26.6029211 C0.259,12.1099386 15.9272667,0.318710526 35.187,0.318710526 C54.4467333,0.318710526 70.115,12.1099386 70.115,26.6029211 C70.115,31.0704649 68.6054,35.4608158 65.7539333,39.330114 C64.9744667,44.4634474 70.3123333,50.2336228 72.4928667,52.0669561" id="Fill-4" fill="#493B80" mask="url(#mask-8)"></path>
                    </g>
                    <path d="M48.7135711,42.2986494 C48.2428596,41.8310823 48.0075039,41.2328714 48.0075039,40.5049991 C48.0075039,39.7771268 48.2428596,39.1730223 48.7135711,38.6917032 C49.1852714,38.2103841 49.7865162,37.9697246 50.5202722,37.9697246 C51.2263394,37.9697246 51.8157175,38.2103841 52.2864289,38.6917032 C52.7571404,39.1730223 52.993485,39.7771268 52.993485,40.5049991 C52.993485,41.2328714 52.7571404,41.8310823 52.2864289,42.2986494 C51.8157175,42.7671987 51.2263394,43 50.5202722,43 C49.7865162,43 49.1852714,42.7671987 48.7135711,42.2986494 M49.5976383,35.0061744 C49.3741493,34.7468514 49.2633936,34.3961761 49.2633936,33.9531661 C49.2633936,32.4198211 49.5383049,31.1192773 50.0881275,30.0534994 C50.6379501,28.9877215 51.4349951,27.8178214 52.483218,26.5437993 C53.3208074,25.5556218 53.94183,24.6912121 54.3482636,23.9505701 C54.7527194,23.2089458 54.9564307,22.3975794 54.9564307,21.5135239 C54.9564307,20.5253464 54.5895527,19.7454131 53.8567855,19.1737239 C53.1240184,18.6010524 52.1420511,18.3152079 50.9128614,18.3152079 C49.8132162,18.3152079 48.78576,18.530328 47.8304927,18.9586038 C46.8752254,19.3878618 45.8082136,20.0312577 44.6314351,20.8897737 C44.1073236,21.2011577 43.6751789,21.3573408 43.3359898,21.3573408 C42.9434006,21.3573408 42.6220115,21.195264 42.3738002,20.870128 C42.1246001,20.5449921 42,20.1481494 42,19.6805824 C42,19.0558499 42.2492002,18.5362217 42.7466116,18.1207157 C43.8462568,17.1590598 45.1476354,16.3977899 46.6527253,15.8388704 C48.1578151,15.2799509 49.6559828,15 51.1482171,15 C52.6661625,15 54.0199523,15.2603052 55.2115642,15.7799333 C56.4021872,16.3005438 57.3317434,17.0352921 57.9992438,17.9841782 C58.6657553,18.9330644 59,20.018488 59,21.240449 C59,22.2021049 58.8358443,23.0802666 58.5095108,23.8729697 C58.1821884,24.6656727 57.7767436,25.3680056 57.2921878,25.9780039 C56.8076319,26.5889844 56.1470537,27.3502543 55.3094643,28.2598491 C54.2355302,29.4042098 53.4058519,30.4179267 52.8164737,31.3009998 C52.2280845,32.1860375 51.8671398,33.1869847 51.7375953,34.3038414 C51.6841952,34.6427293 51.5467396,34.9089283 51.3252283,35.1034205 C51.1017393,35.2988949 50.8199058,35.396141 50.4807167,35.396141 C50.1138386,35.396141 49.8191496,35.2664796 49.5976383,35.0061744" id="Fill-7" fill="#493B80"></path>
                </g>
                <g id="Group" transform="translate(94.000000, 111.000000)">
                    <g id="Group-3" transform="translate(0.000000, 0.685000)">
                        <mask id="mask-10" fill="white">
                            <use xlink:href="#path-9"></use>
                        </mask>
                        <g id="Clip-2"></g>
                        <path d="M55.2193,13.0687 C52.8833,3.4217 41.4473,0.3467 32.8443,0.3157 C29.7223,0.3037 25.2963,0.7947 20.8103,1.9117 C14.0523,2.9747 7.8193,5.6197 3.4703,11.5747 C-2.1117,19.2167 -0.9067,28.5877 6.6973,34.2227 C17.4693,42.2047 35.6793,40.1697 46.6333,33.5937 C53.6853,29.3597 57.1523,21.0477 55.2193,13.0687" id="Fill-1" fill="#EBB3D1" mask="url(#mask-10)"></path>
                    </g>
                    <path d="M55.3395,30.9534 C57.1305,28.5624 58.0735,25.8494 58.0735,23.1094 C58.0735,14.1534 48.2225,6.8604 36.1195,6.8604 C24.0105,6.8604 14.1665,14.1534 14.1665,23.1094 C14.1665,32.0724 24.0105,39.3644 36.1195,39.3644 C39.3645,39.3644 42.4895,38.8474 45.4115,37.8334 C45.8735,37.4204 46.5655,37.3714 47.1105,37.7214 C50.1025,39.6374 54.8855,40.5244 58.1505,40.9094 C56.3255,38.6024 54.3395,35.1344 55.0745,31.5274 C55.0745,31.5134 55.0805,31.4984 55.0805,31.4854 C55.0885,31.4634 55.0955,31.4504 55.1025,31.4294 C55.1515,31.2464 55.2355,31.0934 55.3395,30.9534 M62.5555,41.5594 C63.0095,41.9444 63.1635,42.4054 62.9535,42.9574 C62.7435,43.4964 62.2265,43.6844 61.6465,43.6844 L61.6045,43.6844 C61.1985,43.6844 52.0745,43.5034 46.4325,40.4334 C46.4255,40.4414 46.4115,40.4484 46.3975,40.4554 C43.1605,41.5874 39.6995,42.1614 36.1195,42.1614 C22.4725,42.1614 11.3705,33.6174 11.3705,23.1094 C11.3705,12.6074 22.4725,4.0644 36.1195,4.0644 C49.7675,4.0644 60.8705,12.6074 60.8705,23.1094 C60.8705,26.3464 59.8005,29.5274 57.7795,32.3304 C57.2275,36.0504 61.0095,40.2314 62.5555,41.5594" id="Fill-4" fill="#493B80"></path>
                    <path d="M34.2081,31.0853 C33.8751,30.7523 33.7081,30.3263 33.7081,29.8083 C33.7081,29.2903 33.8751,28.8603 34.2081,28.5173 C34.5411,28.1753 34.9671,28.0033 35.4851,28.0033 C35.9841,28.0033 36.4011,28.1753 36.7341,28.5173 C37.0671,28.8603 37.2341,29.2903 37.2341,29.8083 C37.2341,30.3263 37.0671,30.7523 36.7341,31.0853 C36.4011,31.4183 35.9841,31.5853 35.4851,31.5853 C34.9671,31.5853 34.5411,31.4183 34.2081,31.0853 M34.8331,25.8943 C34.6751,25.7093 34.5971,25.4603 34.5971,25.1453 C34.5971,24.0533 34.7911,23.1283 35.1801,22.3693 C35.5681,21.6103 36.1321,20.7783 36.8731,19.8713 C37.4651,19.1683 37.9041,18.5533 38.1911,18.0253 C38.4781,17.4983 38.6221,16.9203 38.6221,16.2913 C38.6221,15.5873 38.3621,15.0323 37.8441,14.6253 C37.3261,14.2183 36.6321,14.0143 35.7631,14.0143 C34.9851,14.0143 34.2591,14.1673 33.5831,14.4723 C32.9081,14.7783 32.1541,15.2353 31.3221,15.8463 C30.9511,16.0683 30.6461,16.1793 30.4061,16.1793 C30.1281,16.1793 29.9011,16.0643 29.7261,15.8323 C29.5491,15.6013 29.4621,15.3193 29.4621,14.9863 C29.4621,14.5423 29.6371,14.1713 29.9891,13.8763 C30.7671,13.1913 31.6871,12.6503 32.7511,12.2513 C33.8151,11.8543 34.8751,11.6553 35.9291,11.6553 C37.0021,11.6553 37.9601,11.8403 38.8021,12.2103 C39.6441,12.5813 40.3011,13.1033 40.7731,13.7783 C41.2451,14.4543 41.4801,15.2273 41.4801,16.0963 C41.4801,16.7813 41.3651,17.4053 41.1341,17.9703 C40.9021,18.5343 40.6151,19.0343 40.2731,19.4683 C39.9311,19.9033 39.4631,20.4453 38.8721,21.0923 C38.1121,21.9073 37.5251,22.6283 37.1091,23.2573 C36.6921,23.8873 36.4381,24.5993 36.3461,25.3953 C36.3081,25.6353 36.2111,25.8253 36.0541,25.9633 C35.8961,26.1023 35.6971,26.1723 35.4581,26.1723 C35.1981,26.1723 34.9901,26.0793 34.8331,25.8943" id="Fill-6" fill="#493B80"></path>
                </g>
            </g>
        </g>
    </g>
</svg>