<?xml version="1.0" encoding="UTF-8"?>
<svg width="58px" height="58px" viewBox="0 0 58 58" version="1.1" xmlns="http://www.w3.org/2000/svg" xmlns:xlink="http://www.w3.org/1999/xlink">
    <!-- Generator: Sketch 47.1 (45422) - http://www.bohemiancoding.com/sketch -->
    <title>settings</title>
    <desc>Created with Sketch.</desc>
    <defs>
        <filter x="-14.0%" y="-10.0%" width="128.0%" height="128.0%" filterUnits="objectBoundingBox" id="filter-1">
            <feOffset dx="0" dy="2" in="SourceAlpha" result="shadowOffsetOuter1"></feOffset>
            <feGaussianBlur stdDeviation="2" in="shadowOffsetOuter1" result="shadowBlurOuter1"></feGaussianBlur>
            <feColorMatrix values="0 0 0 0 0   0 0 0 0 0   0 0 0 0 0  0 0 0 0.5 0" type="matrix" in="shadowBlurOuter1" result="shadowMatrixOuter1"></feColorMatrix>
            <feMerge>
                <feMergeNode in="shadowMatrixOuter1"></feMergeNode>
                <feMergeNode in="SourceGraphic"></feMergeNode>
            </feMerge>
        </filter>
    </defs>
    <g id="Page-1" stroke="none" stroke-width="1" fill="none" fill-rule="evenodd">
        <g id="archiveAClient" transform="translate(-1330.000000, -830.000000)">
            <g id="settings" filter="url(#filter-1)" transform="translate(1334.000000, 832.000000)">
                <circle id="Oval-2" fill="#45114B" cx="25" cy="25" r="25"></circle>
                <path d="M38.99161,27.8324234 C37.7729471,27.4220622 36.9558033,26.2821699 36.9558033,24.999586 C36.9558033,23.7170022 37.7745873,22.5771099 38.99161,22.1670767 C39.3622934,22.0443948 39.5735502,21.6533871 39.4764508,21.2735324 C39.1316824,19.9309197 38.6005881,18.6437435 37.8943213,17.4411981 C37.6899534,17.093818 37.2461173,16.971136 36.8918358,17.1640157 C36.4552166,17.4018349 35.9605346,17.5271411 35.4612601,17.5271411 C33.814179,17.5271411 32.4725017,16.1858405 32.4725017,14.5384911 C32.4725017,14.0379226 32.5981404,13.5448987 32.8359683,13.1082953 C33.0285269,12.7540266 32.9061685,12.3102067 32.5587758,12.1058462 C31.3574989,11.399605 30.0689639,10.86853 28.7259744,10.5237741 C28.346762,10.4260222 27.9583644,10.6379273 27.8327257,11.0085973 C27.4226776,12.227216 26.282744,13.0443301 25.0001136,13.0443301 C23.7174832,13.0443301 22.5775496,12.2255758 22.1675015,11.0085973 C22.0444871,10.6379273 21.6537933,10.4263502 21.2739247,10.5237741 C19.9312633,10.86853 18.6440404,11.399605 17.4414514,12.1058462 C17.0940587,12.3102067 16.9713723,12.7540266 17.1639309,13.1082953 C17.4020868,13.5448987 17.5273975,14.0395627 17.5273975,14.5384911 C17.5273975,16.1858405 16.1860482,17.5271411 14.5386391,17.5271411 C14.0380524,17.5271411 13.5433704,17.4015069 13.1083914,17.1640157 C12.7541099,16.971136 12.3099458,17.093818 12.1055778,17.4411981 C11.3996391,18.6424314 10.8685448,19.9309197 10.5237764,21.2735324 C10.4260209,21.6530591 10.6379338,22.0414425 11.0082892,22.1670767 C12.2269521,22.5771099 13.0444239,23.7170022 13.0444239,24.999586 C13.0444239,26.2821699 12.2256399,27.4220622 11.0082892,27.8324234 C10.6379338,27.9547773 10.426349,28.3457849 10.5237764,28.7256397 C10.8685448,30.0682524 11.3996391,31.3554286 12.1055778,32.557974 C12.3099458,32.9053541 12.7541099,33.028036 13.1083914,32.8351564 C13.5446826,32.5973372 14.0396926,32.472031 14.5386391,32.472031 C16.1860482,32.472031 17.5273975,33.8133316 17.5273975,35.460681 C17.5273975,35.9612495 17.4017588,36.4542734 17.1639309,36.8908768 C16.9713723,37.2451454 17.0940587,37.6889654 17.4414514,37.8933259 C18.6427283,38.5995671 19.9312633,39.1306421 21.2739247,39.475398 C21.336252,39.4927834 21.3992354,39.5 21.4599225,39.5 C21.7731993,39.499672 22.0635133,39.2999038 22.1671735,38.9905748 C22.5772215,37.7719561 23.7171552,36.9548419 24.9997856,36.9548419 C26.2824159,36.9548419 27.4223496,37.7735962 27.8323977,38.9905748 C27.955084,39.3612448 28.3461059,39.5728219 28.7256464,39.475398 C30.0686358,39.1306421 31.3558588,38.5995671 32.5584477,37.8933259 C32.9058405,37.6889654 33.0281988,37.2451454 32.8356402,36.8908768 C32.5974843,36.4542734 32.4721736,35.9596094 32.4721736,35.460681 C32.4721736,33.8133316 33.8138509,32.472031 35.460932,32.472031 C35.9618468,32.472031 36.4548886,32.5976652 36.8915078,32.8351564 C37.2457893,33.028036 37.6896253,32.9053541 37.8939933,32.557974 C38.6002601,31.3567407 39.1313544,30.0682524 39.4761228,28.7256397 C39.5738782,28.3457849 39.3622934,27.9577295 38.99161,27.8324234 Z M24.9996707,29.5 C22.5183654,29.5 20.5,27.4813053 20.5,25 C20.5,22.5183654 22.5183654,20.5 24.9996707,20.5 C27.4813053,20.5 29.5,22.5183654 29.5,25 C29.5,27.4813053 27.4813053,29.5 24.9996707,29.5 Z" id="Shape" fill="#FFFFFF" fill-rule="nonzero"></path>
            </g>
        </g>
    </g>
</svg>