<?xml version="1.0" encoding="UTF-8"?>
<svg width="114px" height="138px" viewBox="0 0 114 138" version="1.1" xmlns="http://www.w3.org/2000/svg" xmlns:xlink="http://www.w3.org/1999/xlink">
    <!-- Generator: Sketch 50.2 (55047) - http://www.bohemiancoding.com/sketch -->
    <title>Icon_Training</title>
    <desc>Created with Sketch.</desc>
    <defs></defs>
    <g id="Page-1" stroke="none" stroke-width="1" fill="none" fill-rule="evenodd">
        <g id="Careeer-V3" transform="translate(-927.000000, -1809.000000)">
            <g id="Training" transform="translate(883.000000, 1809.000000)">
                <g id="Icon_Training" transform="translate(44.000000, 0.000000)">
                    <circle id="Oval" fill="#F2B0CF" fill-rule="nonzero" cx="54.9463235" cy="64.7889706" r="34.3477941"></circle>
                    <path d="M84.0176471,138 L84.0176471,110.369559 C84.2252496,103.560115 86.5049171,96.9759824 90.5523529,91.4960294 C93.222933,88.1283591 95.2990716,84.3295402 96.6913235,80.2632353 C100.658824,67.9852941 102.992647,44.0382353 76.6610294,29.9744118 C76.6610294,29.9744118 46.9605882,14.6219118 24.2514706,35.4538235 C20.0282944,39.2620732 16.967934,44.186791 15.4235294,49.6597059 C14.0525604,54.9398924 13.7080903,60.4341909 14.4088235,65.8442647 C14.5001471,66.5951471 14.6422059,67.3460294 14.7741176,68.0969118 C15.4541181,72.1134127 14.5993459,76.2387752 12.3794118,79.6544118 L6.29117647,88.4519118 C6.29117647,88.4519118 4.52558824,92.3382353 9.02073529,93.1094118 C9.86148211,93.1913115 10.687406,93.3858473 11.4763235,93.6877941 C11.7871851,93.8281459 12.0149751,94.1052349 12.0925408,94.4373751 C12.1701064,94.7695153 12.0886034,95.1188345 11.8720588,95.3823529 C11.2125,96.1535294 10.5935294,97.4117647 12.5011765,98.4264706 C12.7729696,98.5719314 12.9740111,98.8215637 13.0581938,99.1181166 C13.1423766,99.4146695 13.1024775,99.7326978 12.9476471,99.9992647 C12.3388235,101.013971 11.9938235,102.617206 14.6117647,103.388382 C15.1671697,103.546107 15.5133661,104.098269 15.4133824,104.666912 C14.8045588,107.822647 13.7188235,117.137647 22.2727941,117.005735 L29.3757353,116.315735 C34.3608215,115.804675 38.9017053,119.210338 39.8069118,124.139118 C40.5443251,128.697621 40.8838399,133.311627 40.8216176,137.928971" id="Shape" stroke="#4A3C81" stroke-width="3"></path>
                    <path d="M80.5575,62.3536765 C82.3140164,60.8284061 82.9879478,58.4004631 82.2689123,56.1880465 C81.5498769,53.9756299 79.5773181,52.4077962 77.2597059,52.2066176 C78.2268069,50.1058816 77.8545009,47.6314802 76.3120475,45.9083395 C74.7695941,44.1851987 72.3513713,43.5421806 70.1567647,44.2716176 C70.1841232,41.9538053 68.8297825,39.8419594 66.7118643,38.899927 C64.5939461,37.9578947 62.1186053,38.3663302 60.4155882,39.9388235 C59.5024277,37.801586 57.4023796,36.4151544 55.0782353,36.4151544 C52.754091,36.4151544 50.6540429,37.801586 49.7408824,39.9388235 C48.0378653,38.3663302 45.5625245,37.9578947 43.4446063,38.899927 C41.326688,39.8419594 39.9723474,41.9538053 39.9997059,44.2716176 C37.8050993,43.5421806 35.3868765,44.1851987 33.8444231,45.9083395 C32.3019697,47.6314802 31.9296637,50.1058816 32.8967647,52.2066176 C30.5791525,52.4077962 28.6065937,53.9756299 27.8875582,56.1880465 C27.1685228,58.4004631 27.8424542,60.8284061 29.5989706,62.3536765 C27.5704914,63.4858705 26.4124926,65.7185096 26.6554513,68.0288261 C26.89841,70.3391426 28.4955195,72.2820476 30.7151471,72.9675 C29.3497149,74.8152345 29.2027121,77.2944802 30.340228,79.2906229 C31.4777439,81.2867656 33.6856512,82.4240493 35.9713235,82.1911765 C35.430323,84.4716683 36.3140051,86.853744 38.2114255,88.2296512 C40.1088459,89.6055584 42.6475939,89.7052449 44.6470588,88.4823529 C45.1017031,90.75616 46.8660918,92.5411719 49.1344623,93.0222077 C51.4028328,93.5032435 53.7398471,92.5879843 55.0782353,90.6944118 C56.4237322,92.5607277 58.7446108,93.4561044 60.9949408,92.9770303 C63.2452708,92.4979561 65.0001897,90.7348803 65.4688235,88.4823529 C67.4652493,89.6583298 69.9698274,89.5342601 71.8402552,88.1667304 C73.7106829,86.7992007 74.5885719,84.4502401 74.0735294,82.1911765 C76.3807985,82.4687499 78.6312118,81.3433379 79.7932208,79.330809 C80.9552298,77.3182801 80.8047987,74.8066506 79.4108824,72.9472059 C81.6305099,72.2617535 83.2276194,70.3188485 83.4705781,68.008532 C83.7135368,65.6982155 82.5555381,63.4655764 80.5270588,62.3333824 L80.5575,62.3536765 Z" id="Shape" stroke="#4A3C81" stroke-width="3" stroke-linecap="round" stroke-linejoin="round"></path>
                    <path d="M38.8733824,71.7195526 C40.746721,71.7329282 42.4926156,70.7724218 43.4840202,69.1828629 C44.4754248,67.593304 44.570017,65.6028837 43.7338235,63.9264706 C44.8678942,64.200924 46.0603133,64.1012592 47.1330882,63.6423529 C48.9048209,62.9124156 50.2132534,61.369524 50.6439706,59.5023529 C50.8721744,58.4364285 50.7912051,57.3275003 50.4105882,56.3060294 L50.7758824,56.3060294 C51.0295588,56.3060294 51.2832353,56.3060294 51.5267647,56.3060294 C56.8235294,55.8088235 58.2745588,48.8682353 53.8301471,45.9661765 C51.75,44.6470588 49.8322059,42.6176471 49.7205882,39.9489706" id="Shape" stroke="#4A3C81" stroke-width="3" stroke-linecap="round" stroke-linejoin="round"></path>
                    <path d="M50.7352941,56.3669118 C47.5398623,55.0699347 45.0337235,52.4938742 43.8251471,49.2639706" id="Shape" stroke="#4A3C81" stroke-width="3" stroke-linecap="round" stroke-linejoin="round"></path>
                    <path d="M70.1161765,44.2817647 C70.1161765,44.2817647 66.6864706,55.5957353 56.2958824,52.1863235" id="Shape" stroke="#4A3C81" stroke-width="3" stroke-linecap="round" stroke-linejoin="round"></path>
                    <path d="M80.5575,62.3536765 C76.6039031,62.2846017 73.1757194,65.0742862 72.4398529,68.9594118 C72.4398529,68.9594118 65.7022059,65.3470588 59.6342647,69.0608824 C58.3293598,69.8707998 57.2092633,70.9459542 56.3466176,72.2166176 C54.7230882,74.5301471 52.5211765,78.9035294 54.3172059,83.8654412" id="Shape" stroke="#4A3C81" stroke-width="3" stroke-linecap="round" stroke-linejoin="round"></path>
                    <path d="M77.3814706,51.9022059 C77.3814706,51.9022059 64.0076471,54.3679412 64.3323529,67.4677941" id="Shape" stroke="#4A3C81" stroke-width="3" stroke-linecap="round" stroke-linejoin="round"></path>
                    <path d="M35.9713235,82.1911765 C35.9713235,82.1911765 43.0742647,73.3835294 54.0026471,77.1176471" id="Shape" stroke="#4A3C81" stroke-width="3" stroke-linecap="round" stroke-linejoin="round"></path>
                    <path d="M65.4688235,88.4823529 C63.4338445,86.9316401 62.2312005,84.5263521 62.2116176,81.9679412 C62.18042,80.1824054 63.1169634,78.5195147 64.6600411,77.620614 C66.2031189,76.7217133 68.1115968,76.7272724 69.6494118,77.6351471 L69.7508824,77.6960294" id="Shape" stroke="#4A3C81" stroke-width="3" stroke-linecap="round" stroke-linejoin="round"></path>
                    <path d="M49.4161765,62.0188235 C53.895208,62.5681642 57.3249324,66.2679794 57.5338235,70.7757353" id="Shape" stroke="#4A3C81" stroke-width="3" stroke-linecap="round" stroke-linejoin="round"></path>
                    <path d="M43.7338235,63.9264706 C41.6412005,62.8816362 39.7809748,61.4252072 38.2645588,59.6444118" id="Shape" stroke="#4A3C81" stroke-width="3" stroke-linecap="round" stroke-linejoin="round"></path>
                    <path d="M56.4582353,12.5925 L56.4582353,0" id="Shape" stroke="#4A3C81" stroke-width="3"></path>
                    <path d="M39.2183824,15.6366176 L34.5811765,2.90205882" id="Shape" stroke="#4A3C81" stroke-width="3"></path>
                    <path d="M23.0744118,23.4092647 L14.5914706,13.3027941" id="Shape" stroke="#4A3C81" stroke-width="3"></path>
                    <path d="M12.7548529,34.155 L0.761029412,27.2347059" id="Shape" stroke="#4A3C81" stroke-width="3"></path>
                    <path d="M102.089559,36.8236765 L112.358382,30.8977941" id="Shape" stroke="#4A3C81" stroke-width="3"></path>
                    <path d="M90.8973529,24.5254412 L99.1164706,14.7335294" id="Shape" stroke="#4A3C81" stroke-width="3"></path>
                    <path d="M73.7082353,16.6208824 L78.315,3.9675" id="Shape" stroke="#4A3C81" stroke-width="3"></path>
                </g>
            </g>
        </g>
    </g>
</svg>